<?xml version="1.0" encoding="utf-8"?>
<!-- Generator: Adobe Illustrator 18.0.0, SVG Export Plug-In . SVG Version: 6.00 Build 0)  -->
<!DOCTYPE svg PUBLIC "-//W3C//DTD SVG 1.1//EN" "http://www.w3.org/Graphics/SVG/1.1/DTD/svg11.dtd">
<svg version="1.1" id="Layer_1" xmlns="http://www.w3.org/2000/svg" xmlns:xlink="http://www.w3.org/1999/xlink" x="0px" y="0px"
	 viewBox="0 0 736.1 340" enable-background="new 0 0 736.1 340" xml:space="preserve">
<polygon fill="#FFA799" points="706.7,340 706.7,340 706.7,340 "/>
<polygon fill="none" stroke="#FD2122" stroke-miterlimit="10" points="603.6,297.5 618.3,289 618.3,289 "/>
<polygon fill="none" stroke="#FD2122" stroke-miterlimit="10" points="677.2,289 662.5,297.5 647.8,306 662.5,297.5 "/>
<polygon fill="none" stroke="#FD2122" stroke-miterlimit="10" points="191.4,8.5 206.1,17 206.1,17 "/>
<polygon fill="none" stroke="#FD2122" stroke-miterlimit="10" points="191.4,280.5 206.1,289 206.1,289 "/>
<polygon fill="none" stroke="#FD2122" stroke-miterlimit="10" points="206.1,153 191.4,161.5 206.1,153 "/>
<polygon fill="none" stroke="#FD2122" stroke-miterlimit="10" points="603.6,280.5 618.3,289 618.3,289 "/>
<polygon fill="none" stroke="#FD2122" stroke-miterlimit="10" points="368.1,212.5 382.8,221 382.8,221 "/>
<polygon fill="none" stroke="#FD2122" stroke-miterlimit="10" points="603.6,212.5 618.3,221 618.3,221 "/>
<polygon fill="none" stroke="#FD2122" stroke-miterlimit="10" points="603.6,8.5 618.3,17 618.3,17 "/>
<polygon fill="none" stroke="#FD2122" stroke-miterlimit="10" points="647.8,306 662.5,314.5 677.2,323 662.5,314.5 "/>
<polygon fill="none" stroke="#FD2122" stroke-miterlimit="10" points="368.1,297.5 382.8,289 382.8,289 "/>
<polygon fill="none" stroke="#FD2122" stroke-miterlimit="10" points="368.1,229.5 382.8,221 382.8,221 "/>
<polygon fill="none" stroke="#FD2122" stroke-miterlimit="10" points="191.4,297.5 206.1,289 206.1,289 "/>
<polygon fill="none" stroke="#FD2122" stroke-miterlimit="10" points="677.2,17 662.5,8.5 647.8,0 662.5,8.5 "/>
<polygon fill="none" stroke="#FD2122" stroke-miterlimit="10" points="191.4,178.5 206.1,187 206.1,187 "/>
<polygon fill="none" stroke="#FD2122" stroke-miterlimit="10" points="191.4,110.5 206.1,119 206.1,119 "/>
<polygon fill="none" stroke="#FD2122" stroke-miterlimit="10" points="618.3,85 603.6,93.5 618.3,85 "/>
<polygon fill="none" stroke="#FD2122" stroke-miterlimit="10" points="368.1,280.5 382.8,289 382.8,289 "/>
<polygon fill="none" stroke="#FD2122" stroke-miterlimit="10" points="206.1,51 191.4,59.5 206.1,51 "/>
<polygon fill="none" stroke="#FD2122" stroke-miterlimit="10" points="368.1,8.5 382.8,17 382.8,17 "/>
<polygon fill="none" stroke="#FD2122" stroke-miterlimit="10" points="382.8,51 368.1,59.5 382.8,51 "/>
<polygon fill="none" stroke="#FD2122" stroke-miterlimit="10" points="191.4,331.5 206.1,323 206.1,323 "/>
<polygon fill="none" stroke="#FD2122" stroke-miterlimit="10" points="191.4,229.5 206.1,221 206.1,221 "/>
<polygon fill="none" stroke="#FD2122" stroke-miterlimit="10" points="677.2,17 662.5,25.5 647.8,34 662.5,25.5 "/>
<polygon fill="none" stroke="#FD2122" stroke-miterlimit="10" points="647.8,68 662.5,76.5 677.2,85 662.5,76.5 "/>
<polygon fill="none" stroke="#FD2122" stroke-miterlimit="10" points="647.8,68 662.5,59.5 677.2,51 662.5,59.5 "/>
<polygon fill="none" stroke="#FD2122" stroke-miterlimit="10" points="647.8,102 662.5,93.5 677.2,85 662.5,93.5 "/>
<polygon fill="none" stroke="#FD2122" stroke-miterlimit="10" points="647.8,102 662.5,110.5 677.2,119 662.5,110.5 "/>
<polygon fill="none" stroke="#FD2122" stroke-miterlimit="10" points="368.1,76.5 382.8,85 382.8,85 "/>
<polygon fill="none" stroke="#FD2122" stroke-miterlimit="10" points="647.8,272 662.5,280.5 677.2,289 662.5,280.5 "/>
<polygon fill="none" stroke="#FD2122" stroke-miterlimit="10" points="618.3,17 603.6,25.5 618.3,17 "/>
<polygon fill="none" stroke="#FD2122" stroke-miterlimit="10" points="603.6,110.5 618.3,119 618.3,119 "/>
<polygon fill="none" stroke="#FD2122" stroke-miterlimit="10" points="191.4,263.5 206.1,255 206.1,255 "/>
<polygon fill="none" stroke="#FD2122" stroke-miterlimit="10" points="191.4,76.5 206.1,85 206.1,85 "/>
<polygon fill="none" stroke="#FD2122" stroke-miterlimit="10" points="677.2,51 662.5,42.5 647.8,34 662.5,42.5 "/>
<polygon fill="none" stroke="#FD2122" stroke-miterlimit="10" points="647.8,238 662.5,246.5 677.2,255 662.5,246.5 "/>
<polygon fill="none" stroke="#FD2122" stroke-miterlimit="10" points="647.8,238 662.5,229.5 677.2,221 662.5,229.5 "/>
<polygon fill="none" stroke="#FD2122" stroke-miterlimit="10" points="647.8,204 662.5,212.5 677.2,221 662.5,212.5 "/>
<polygon fill="none" stroke="#FD2122" stroke-miterlimit="10" points="191.4,42.5 206.1,51 206.1,51 "/>
<polygon fill="none" stroke="#FD2122" stroke-miterlimit="10" points="647.8,136 662.5,127.5 677.2,119 662.5,127.5 "/>
<polygon fill="none" stroke="#FD2122" stroke-miterlimit="10" points="368.1,263.5 382.8,255 382.8,255 "/>
<polygon fill="none" stroke="#FD2122" stroke-miterlimit="10" points="647.8,272 662.5,263.5 677.2,255 662.5,263.5 "/>
<polygon fill="none" stroke="#FD2122" stroke-miterlimit="10" points="647.8,170 662.5,161.5 677.2,153 662.5,161.5 "/>
<polygon fill="none" stroke="#FD2122" stroke-miterlimit="10" points="647.8,136 662.5,144.5 677.2,153 662.5,144.5 "/>
<polygon fill="none" stroke="#FD2122" stroke-miterlimit="10" points="603.6,76.5 618.3,85 618.3,85 "/>
<polygon fill="none" stroke="#FD2122" stroke-miterlimit="10" points="647.8,170 662.5,178.5 677.2,187 662.5,178.5 "/>
<polygon fill="none" stroke="#FD2122" stroke-miterlimit="10" points="647.8,204 662.5,195.5 677.2,187 662.5,195.5 "/>
<polygon fill="none" stroke="#FD2122" stroke-miterlimit="10" points="603.6,229.5 618.3,221 618.3,221 "/>
<polygon fill="none" stroke="#FD2122" stroke-miterlimit="10" points="191.4,314.5 206.1,323 206.1,323 "/>
<polygon fill="none" stroke="#FD2122" stroke-miterlimit="10" points="191.4,246.5 206.1,255 206.1,255 "/>
<polygon fill="none" stroke="#FD2122" stroke-miterlimit="10" points="368.1,246.5 382.8,255 382.8,255 "/>
<polygon fill="none" stroke="#FD2122" stroke-miterlimit="10" points="191.4,144.5 206.1,153 206.1,153 "/>
<polygon fill="none" stroke="#FD2122" stroke-miterlimit="10" points="206.1,85 191.4,93.5 206.1,85 "/>
<polygon fill="none" stroke="#FD2122" stroke-miterlimit="10" points="603.6,314.5 618.3,323 618.3,323 "/>
<polygon fill="none" stroke="#FD2122" stroke-miterlimit="10" points="206.1,17 191.4,25.5 206.1,17 "/>
<polygon fill="none" stroke="#FD2122" stroke-miterlimit="10" points="368.1,42.5 382.8,51 382.8,51 "/>
<polygon fill="none" stroke="#FD2122" stroke-miterlimit="10" points="382.8,119 382.8,119 382.8,102 382.8,85 382.8,85 382.8,102 
	"/>
<polygon fill="none" stroke="#FD2122" stroke-miterlimit="10" points="368.1,314.5 382.8,323 382.8,323 "/>
<polygon fill="none" stroke="#FD2122" stroke-miterlimit="10" points="603.6,42.5 618.3,51 618.3,51 "/>
<polygon fill="none" stroke="#FD2122" stroke-miterlimit="10" points="618.3,187 618.3,187 603.6,195.5 "/>
<polygon fill="none" stroke="#FD2122" stroke-miterlimit="10" points="618.3,153 603.6,144.5 618.3,153 "/>
<polygon fill="none" stroke="#FD2122" stroke-miterlimit="10" points="618.3,153 618.3,153 603.6,161.5 "/>
<polygon fill="none" stroke="#FD2122" stroke-miterlimit="10" points="603.6,263.5 618.3,255 618.3,255 "/>
<polygon fill="none" stroke="#FD2122" stroke-miterlimit="10" points="603.6,246.5 618.3,255 618.3,255 "/>
<polygon fill="none" stroke="#FD2122" stroke-miterlimit="10" points="618.3,51 603.6,59.5 618.3,51 "/>
<polygon fill="none" stroke="#FD2122" stroke-miterlimit="10" points="618.3,187 603.6,178.5 618.3,187 "/>
<polygon fill="none" stroke="#FD2122" stroke-miterlimit="10" points="368.1,195.5 382.8,187 382.8,187 "/>
<polygon fill="none" stroke="#FD2122" stroke-miterlimit="10" points="618.3,119 603.6,127.5 618.3,119 "/>
<polygon fill="none" stroke="#FD2122" stroke-miterlimit="10" points="191.4,195.5 206.1,187 206.1,187 "/>
<polygon fill="none" stroke="#FD2122" stroke-miterlimit="10" points="382.8,17 368.1,25.5 382.8,17 "/>
<polygon fill="none" stroke="#FD2122" stroke-miterlimit="10" points="368.1,144.5 382.8,153 382.8,153 "/>
<polygon fill="none" stroke="#FD2122" stroke-miterlimit="10" points="368.1,331.5 382.8,323 382.8,323 "/>
<polygon fill="none" stroke="#FD2122" stroke-miterlimit="10" points="191.4,212.5 206.1,221 206.1,221 "/>
<polygon fill="none" stroke="#FD2122" stroke-miterlimit="10" points="206.1,119 191.4,127.5 206.1,119 "/>
<polygon fill="none" stroke="#FD2122" stroke-miterlimit="10" points="677.2,323 662.5,331.5 647.8,340 662.5,331.5 "/>
<polygon fill="none" stroke="#FD2122" stroke-miterlimit="10" points="265,323 250.3,331.5 235.6,340 250.3,331.5 "/>
<polygon fill="none" stroke="#FD2122" stroke-miterlimit="10" points="368.1,178.5 382.8,187 382.8,187 "/>
<polygon fill="none" stroke="#FD2122" stroke-miterlimit="10" points="29.4,323 14.7,331.5 0,340 14.7,331.5 "/>
<polygon fill="none" stroke="#FD2122" stroke-miterlimit="10" points="294.4,340 294.4,340 309.2,331.5 "/>
<polygon fill="none" stroke="#FD2122" stroke-miterlimit="10" points="382.8,153 368.1,161.5 382.8,153 "/>
<polygon fill="none" stroke="#FD2122" stroke-miterlimit="10" points="603.6,331.5 618.3,323 618.3,323 "/>
<polygon fill="none" stroke="#FD2122" stroke-miterlimit="10" points="441.7,323 427,331.5 412.2,340 427,331.5 "/>
<polygon fill="none" stroke="#FD2122" stroke-miterlimit="10" points="382.8,119 368.1,127.5 382.8,119 "/>
<polygon fill="none" stroke="#FD2122" stroke-miterlimit="10" points="471.1,340 471.1,340 485.8,331.5 "/>
<polygon fill="#FF8A78" points="29.4,17 14.7,8.5 0,0 0,17 0,34 14.7,25.5 "/>
<polygon fill="#FF9783" points="29.4,51 14.7,42.5 0,34 0,51 0,68 14.7,59.5 "/>
<polygon fill="#FF5C50" points="29.4,85 14.7,76.5 0,68 0,85 0,102 14.7,93.5 "/>
<polygon fill="#FF4239" points="29.4,119 14.7,110.5 0,102 0,119 0,136 14.7,127.5 "/>
<polygon fill="#FF3B33" points="29.4,153 14.7,144.5 0,136 0,153 0,170 14.7,161.5 "/>
<polygon fill="#FF554A" points="29.4,187 14.7,178.5 0,170 0,187 0,204 14.7,195.5 "/>
<polygon fill="#FFA799" points="29.4,221 14.7,212.5 0,204 0,221 0,238 14.7,229.5 "/>
<polygon fill="#FF7969" points="29.4,255 14.7,246.5 0,238 0,255 0,272 14.7,263.5 "/>
<polygon fill="#FF6F60" points="29.4,289 14.7,280.5 0,272 0,289 0,306 14.7,297.5 "/>
<polygon fill="#FF8271" points="29.4,323 14.7,314.5 0,306 0,323 0,340 14.7,331.5 "/>
<polygon fill="#FE4041" points="29.4,17 44.2,25.5 58.9,34 58.9,17 58.9,0 44.2,8.5 "/>
<polygon fill="#FF554A" points="58.9,34 73.6,25.5 88.3,17 73.6,8.5 58.9,0 58.9,17 "/>
<polygon fill="#FE4C4E" points="58.9,68 58.9,51 58.9,34 44.2,42.5 29.4,51 44.2,59.5 "/>
<polygon fill="#FF6053" points="58.9,68 73.6,59.5 88.3,51 73.6,42.5 58.9,34 58.9,51 "/>
<polygon fill="#FE4748" points="58.9,102 58.9,85 58.9,68 44.2,76.5 29.4,85 44.2,93.5 "/>
<polygon fill="#FF6F60" points="88.3,85 73.6,76.5 58.9,68 58.9,85 58.9,102 73.6,93.5 "/>
<polygon fill="#FE4344" points="58.9,136 58.9,119 58.9,102 44.2,110.5 29.4,119 44.2,127.5 "/>
<polygon fill="#FF6F60" points="88.3,119 73.6,110.5 58.9,102 58.9,119 58.9,136 73.6,127.5 "/>
<polygon fill="#FD3637" points="58.9,170 58.9,153 58.9,136 44.2,144.5 29.4,153 44.2,161.5 "/>
<polygon fill="#FF6053" points="88.3,153 73.6,144.5 58.9,136 58.9,153 58.9,170 73.6,161.5 "/>
<polygon fill="#FD3132" points="58.9,204 58.9,187 58.9,170 44.2,178.5 29.4,187 44.2,195.5 "/>
<polygon fill="#C22A2B" points="88.3,187 73.6,178.5 58.9,170 58.9,187 58.9,204 73.6,195.5 "/>
<polygon fill="#FD3536" points="58.9,238 58.9,221 58.9,204 44.2,212.5 29.4,221 44.2,229.5 "/>
<polygon fill="#FF6053" points="88.3,221 73.6,212.5 58.9,204 58.9,221 58.9,238 73.6,229.5 "/>
<polygon fill="#FD2122" points="58.9,272 58.9,255 58.9,238 44.2,246.5 29.4,255 44.2,263.5 "/>
<polygon fill="#FD3132" points="88.3,255 73.6,246.5 58.9,238 58.9,255 58.9,272 73.6,263.5 "/>
<polygon fill="#FE4243" points="58.9,272 44.2,280.5 29.4,289 44.2,297.5 58.9,306 58.9,289 "/>
<polygon fill="#FD3132" points="88.3,289 73.6,280.5 58.9,272 58.9,289 58.9,306 73.6,297.5 "/>
<polygon fill="#FE4041" points="58.9,306 44.2,314.5 29.4,323 44.2,331.5 58.9,340 58.9,323 "/>
<polygon fill="#FF4239" points="88.3,323 73.6,314.5 58.9,306 58.9,323 58.9,340 73.6,331.5 "/>
<polygon fill="#FE4041" points="88.3,17 103.1,25.5 117.8,34 117.8,17 117.8,0 103.1,8.5 "/>
<polygon fill="#FE5052" points="117.8,34 132.5,25.5 147.2,17 132.5,8.5 117.8,0 117.8,17 "/>
<polygon fill="#FF6F60" points="88.3,51 103.1,59.5 117.8,68 117.8,51 117.8,34 103.1,42.5 "/>
<polygon fill="#FE4041" points="117.8,68 132.5,59.5 147.2,51 132.5,42.5 117.8,34 117.8,51 "/>
<polygon fill="#FD3132" points="88.3,85 103.1,93.5 117.8,102 117.8,85 117.8,68 103.1,76.5 "/>
<polygon fill="#FE4041" points="117.8,102 132.5,93.5 147.2,85 132.5,76.5 117.8,68 117.8,85 "/>
<polygon fill="#FF4239" points="117.8,136 117.8,119 117.8,102 103.1,110.5 88.3,119 103.1,127.5 "/>
<polygon fill="#FD3132" points="117.8,136 132.5,127.5 147.2,119 132.5,110.5 117.8,102 117.8,119 "/>
<polygon fill="#FFA799" points="117.8,170 117.8,153 117.8,136 103.1,144.5 88.3,153 103.1,161.5 "/>
<polygon fill="#FE4849" points="147.2,153 132.5,144.5 117.8,136 117.8,153 117.8,170 132.5,161.5 "/>
<polygon fill="#FD3132" points="117.8,204 117.8,187 117.8,170 103.1,178.5 88.3,187 103.1,195.5 "/>
<polygon fill="#DE494A" points="147.2,187 132.5,178.5 117.8,170 117.8,187 117.8,204 132.5,195.5 "/>
<polygon fill="#FD3132" points="117.8,204 103.1,212.5 88.3,221 103.1,229.5 117.8,238 117.8,221 "/>
<polygon fill="#FF554A" points="147.2,221 132.5,212.5 117.8,204 117.8,221 117.8,238 132.5,229.5 "/>
<polygon fill="#FFA799" points="117.8,238 103.1,246.5 88.3,255 103.1,263.5 117.8,272 117.8,255 "/>
<polygon fill="#FF8B79" points="147.2,255 132.5,246.5 117.8,238 117.8,255 117.8,272 132.5,263.5 "/>
<polygon fill="#FF6F60" points="117.8,272 103.1,280.5 88.3,289 103.1,297.5 117.8,306 117.8,289 "/>
<polygon fill="#FD3738" points="147.2,289 132.5,280.5 117.8,272 117.8,289 117.8,306 132.5,297.5 "/>
<polygon fill="#FF6F60" points="117.8,306 103.1,314.5 88.3,323 103.1,331.5 117.8,340 117.8,323 "/>
<polygon fill="#FE4849" points="147.2,323 132.5,314.5 117.8,306 117.8,323 117.8,340 132.5,331.5 "/>
<polygon fill="#FD3132" points="147.2,17 161.9,25.5 176.7,34 176.7,17 176.7,0 161.9,8.5 "/>
<polygon fill="#FF6F60" points="176.7,34 191.4,25.5 206.1,17 191.4,8.5 176.7,0 176.7,17 "/>
<polygon fill="#FD3738" points="147.2,51 161.9,59.5 176.7,68 176.7,51 176.7,34 161.9,42.5 "/>
<polygon fill="#C22A2B" points="176.7,68 191.4,59.5 206.1,51 191.4,42.5 176.7,34 176.7,51 "/>
<polygon fill="#FE4041" points="147.2,85 161.9,93.5 176.7,102 176.7,85 176.7,68 161.9,76.5 "/>
<polygon fill="#FF554A" points="176.7,102 191.4,93.5 206.1,85 191.4,76.5 176.7,68 176.7,85 "/>
<polygon fill="#FF6F60" points="147.2,119 161.9,127.5 176.7,136 176.7,119 176.7,102 161.9,110.5 "/>
<polygon fill="#FF8B79" points="176.7,136 191.4,127.5 206.1,119 191.4,110.5 176.7,102 176.7,119 "/>
<polygon fill="#FF6053" points="147.2,153 161.9,161.5 176.7,170 176.7,153 176.7,136 161.9,144.5 "/>
<polygon fill="#FF554A" points="176.7,170 191.4,161.5 206.1,153 191.4,144.5 176.7,136 176.7,153 "/>
<polygon fill="#FD3738" points="176.7,170 161.9,178.5 147.2,187 161.9,195.5 176.7,204 176.7,187 "/>
<polygon fill="#FD3132" points="206.1,187 191.4,178.5 176.7,170 176.7,187 176.7,204 191.4,195.5 "/>
<polygon fill="#FD3132" points="176.7,204 161.9,212.5 147.2,221 161.9,229.5 176.7,238 176.7,221 "/>
<polygon fill="#FF4239" points="206.1,221 191.4,212.5 176.7,204 176.7,221 176.7,238 191.4,229.5 "/>
<polygon fill="#FE4041" points="176.7,238 161.9,246.5 147.2,255 161.9,263.5 176.7,272 176.7,255 "/>
<polygon fill="#F03435" points="206.1,255 191.4,246.5 176.7,238 176.7,255 176.7,272 191.4,263.5 "/>
<polygon fill="#FE4C4E" points="176.7,272 161.9,280.5 147.2,289 161.9,297.5 176.7,306 176.7,289 "/>
<polygon fill="#FE4041" points="206.1,289 191.4,280.5 176.7,272 176.7,289 176.7,306 191.4,297.5 "/>
<polygon fill="#FF6F60" points="176.7,306 161.9,314.5 147.2,323 161.9,331.5 176.7,340 176.7,323 "/>
<polygon fill="#FF554A" points="206.1,323 191.4,314.5 176.7,306 176.7,323 176.7,340 191.4,331.5 "/>
<rect x="206.1" y="17" fill="#FF554A" width="0" height="0"/>
<polygon fill="#FF554A" points="206.1,17 220.8,25.5 235.6,34 235.6,17 235.6,0 220.8,8.5 "/>
<polygon fill="#FE4041" points="235.6,34 250.3,25.5 265,17 250.3,8.5 235.6,0 235.6,17 "/>
<rect x="206.1" y="51" fill="#FFA799" width="0" height="0"/>
<polygon fill="#FFA799" points="206.1,51 220.8,59.5 235.6,68 235.6,51 235.6,34 220.8,42.5 "/>
<polygon fill="#FD3132" points="235.6,68 250.3,59.5 265,51 250.3,42.5 235.6,34 235.6,51 "/>
<rect x="206.1" y="85" fill="#F03435" width="0" height="0"/>
<polygon fill="#F03435" points="206.1,85 220.8,93.5 235.6,102 235.6,85 235.6,68 220.8,76.5 "/>
<polygon fill="#FF6F60" points="235.6,102 250.3,93.5 265,85 250.3,76.5 235.6,68 235.6,85 "/>
<polygon fill="#FD3738" points="206.1,119 220.8,127.5 235.6,136 235.6,119 235.6,102 220.8,110.5 "/>
<rect x="206.1" y="119" fill="#FD3738" width="0" height="0"/>
<polygon fill="#C22A2B" points="235.6,136 250.3,127.5 265,119 250.3,110.5 235.6,102 235.6,119 "/>
<polygon fill="#DE494A" points="206.1,153 220.8,161.5 235.6,170 235.6,153 235.6,136 220.8,144.5 "/>
<rect x="206.1" y="153" fill="#DE494A" width="0" height="0"/>
<polygon fill="#FF9783" points="235.6,170 250.3,161.5 265,153 250.3,144.5 235.6,136 235.6,153 "/>
<rect x="206.1" y="187" fill="#FD2122" width="0" height="0"/>
<polygon fill="#FD2122" points="235.6,170 220.8,178.5 206.1,187 220.8,195.5 235.6,204 235.6,187 "/>
<polygon fill="#F03435" points="265,187 250.3,178.5 235.6,170 235.6,187 235.6,204 250.3,195.5 "/>
<rect x="206.1" y="221" fill="#FE4C4E" width="0" height="0"/>
<polygon fill="#FE4C4E" points="235.6,204 220.8,212.5 206.1,221 220.8,229.5 235.6,238 235.6,221 "/>
<polygon fill="#FF6053" points="265,221 250.3,212.5 235.6,204 235.6,221 235.6,238 250.3,229.5 "/>
<rect x="206.1" y="255" fill="#FE4041" width="0" height="0"/>
<polygon fill="#FE4041" points="235.6,238 220.8,246.5 206.1,255 220.8,263.5 235.6,272 235.6,255 "/>
<polygon fill="#FF554A" points="265,255 250.3,246.5 235.6,238 235.6,255 235.6,272 250.3,263.5 "/>
<polygon fill="#FF4239" points="235.6,272 220.8,280.5 206.1,289 220.8,297.5 235.6,306 235.6,289 "/>
<rect x="206.1" y="289" fill="#FF4239" width="0" height="0"/>
<polygon fill="#FF9783" points="265,289 250.3,280.5 235.6,272 235.6,289 235.6,306 250.3,297.5 "/>
<polygon fill="#FFA799" points="235.6,306 220.8,314.5 206.1,323 220.8,331.5 235.6,340 235.6,323 "/>
<rect x="206.1" y="323" fill="#FFA799" width="0" height="0"/>
<polygon fill="#FD3738" points="265,323 250.3,314.5 235.6,306 235.6,323 235.6,340 250.3,331.5 "/>
<polygon fill="#FF6F60" points="265,17 279.7,25.5 294.4,34 294.4,17 294.4,0 279.7,8.5 "/>
<polygon fill="#C22A2B" points="294.4,34 309.2,25.5 323.9,17 309.2,8.5 294.4,0 294.4,17 "/>
<polygon fill="#FD3738" points="265,51 279.7,59.5 294.4,68 294.4,51 294.4,34 279.7,42.5 "/>
<polygon fill="#FE4041" points="294.4,68 309.2,59.5 323.9,51 309.2,42.5 294.4,34 294.4,51 "/>
<polygon fill="#FF6053" points="265,85 279.7,93.5 294.4,102 294.4,85 294.4,68 279.7,76.5 "/>
<polygon fill="#FE4041" points="294.4,102 309.2,93.5 323.9,85 309.2,76.5 294.4,68 294.4,85 "/>
<polygon fill="#FE4C4E" points="265,119 279.7,127.5 294.4,136 294.4,119 294.4,102 279.7,110.5 "/>
<polygon fill="#FF554A" points="294.4,136 309.2,127.5 323.9,119 309.2,110.5 294.4,102 294.4,119 "/>
<polygon fill="#FF6F60" points="265,153 279.7,161.5 294.4,170 294.4,153 294.4,136 279.7,144.5 "/>
<polygon fill="#FD3132" points="294.4,170 309.2,161.5 323.9,153 309.2,144.5 294.4,136 294.4,153 "/>
<polygon fill="#FD3738" points="294.4,170 279.7,178.5 265,187 279.7,195.5 294.4,204 294.4,187 "/>
<polygon fill="#FF8B79" points="323.9,187 309.2,178.5 294.4,170 294.4,187 294.4,204 309.2,195.5 "/>
<polygon fill="#FE4344" points="294.4,204 279.7,212.5 265,221 279.7,229.5 294.4,238 294.4,221 "/>
<polygon fill="#FF6F60" points="323.9,221 309.2,212.5 294.4,204 294.4,221 294.4,238 309.2,229.5 "/>
<polygon fill="#FF8B79" points="294.4,238 279.7,246.5 265,255 279.7,263.5 294.4,272 294.4,255 "/>
<polygon fill="#FE4344" points="323.9,255 309.2,246.5 294.4,238 294.4,255 294.4,272 309.2,263.5 "/>
<polygon fill="#C22A2B" points="294.4,272 279.7,280.5 265,289 279.7,297.5 294.4,306 294.4,289 "/>
<polygon fill="#FD3132" points="323.9,289 309.2,280.5 294.4,272 294.4,289 294.4,306 309.2,297.5 "/>
<polygon fill="#FE5052" points="294.4,306 279.7,314.5 265,323 279.7,331.5 294.4,340 294.4,323 "/>
<polygon fill="#FE4849" points="323.9,323 309.2,314.5 294.4,306 294.4,323 294.4,340 309.2,331.5 "/>
<polygon fill="#FD3738" points="323.9,17 338.6,25.5 353.3,34 353.3,17 353.3,0 338.6,8.5 "/>
<polygon fill="#FE4041" points="353.3,34 368.1,25.5 382.8,17 368.1,8.5 353.3,0 353.3,17 "/>
<polygon fill="#FE4041" points="323.9,51 338.6,59.5 353.3,68 353.3,51 353.3,34 338.6,42.5 "/>
<polygon fill="#FE4849" points="353.3,68 368.1,59.5 382.8,51 368.1,42.5 353.3,34 353.3,51 "/>
<polygon fill="#FFA799" points="323.9,85 338.6,93.5 353.3,102 353.3,85 353.3,68 338.6,76.5 "/>
<polygon fill="#FF6053" points="353.3,102 368.1,93.5 382.8,85 368.1,76.5 353.3,68 353.3,85 "/>
<polygon fill="#FD3738" points="323.9,119 338.6,127.5 353.3,136 353.3,119 353.3,102 338.6,110.5 "/>
<polygon fill="#FF6F60" points="353.3,136 368.1,127.5 382.8,119 368.1,110.5 353.3,102 353.3,119 "/>
<polygon fill="#FE4849" points="323.9,153 338.6,161.5 353.3,170 353.3,153 353.3,136 338.6,144.5 "/>
<polygon fill="#DE494A" points="353.3,170 368.1,161.5 382.8,153 368.1,144.5 353.3,136 353.3,153 "/>
<polygon fill="#FE5052" points="353.3,170 338.6,178.5 323.9,187 338.6,195.5 353.3,204 353.3,187 "/>
<polygon fill="#FE4041" points="382.8,187 368.1,178.5 353.3,170 353.3,187 353.3,204 368.1,195.5 "/>
<polygon fill="#DE494A" points="353.3,204 338.6,212.5 323.9,221 338.6,229.5 353.3,238 353.3,221 "/>
<polygon fill="#FD3132" points="382.8,221 368.1,212.5 353.3,204 353.3,221 353.3,238 368.1,229.5 "/>
<polygon fill="#FE5052" points="353.3,238 338.6,246.5 323.9,255 338.6,263.5 353.3,272 353.3,255 "/>
<polygon fill="#FF9783" points="382.8,255 368.1,246.5 353.3,238 353.3,255 353.3,272 368.1,263.5 "/>
<polygon fill="#FF6053" points="353.3,272 338.6,280.5 323.9,289 338.6,297.5 353.3,306 353.3,289 "/>
<polygon fill="#FF3B33" points="382.8,289 368.1,280.5 353.3,272 353.3,289 353.3,306 368.1,297.5 "/>
<polygon fill="#FF4239" points="353.3,306 338.6,314.5 323.9,323 338.6,331.5 353.3,340 353.3,323 "/>
<polygon fill="#FE4041" points="382.8,323 368.1,314.5 353.3,306 353.3,323 353.3,340 368.1,331.5 "/>
<rect x="382.8" y="17" fill="#DE494A" width="0" height="0"/>
<polygon fill="#DE494A" points="382.8,17 397.5,25.5 412.2,34 412.2,17 412.2,0 397.5,8.5 "/>
<polygon fill="#FE4041" points="412.2,34 427,25.5 441.7,17 427,8.5 412.2,0 412.2,17 "/>
<polygon fill="#FF6F60" points="382.8,51 382.8,51 397.5,59.5 412.2,68 412.2,51 412.2,34 397.5,42.5 "/>
<rect x="382.8" y="51" fill="#FF6F60" width="0" height="0"/>
<polygon fill="#C22A2B" points="412.2,68 427,59.5 441.7,51 427,42.5 412.2,34 412.2,51 "/>
<rect x="382.8" y="85" fill="#FE4041" width="0" height="0"/>
<polygon fill="#FE4041" points="382.8,85 382.8,85 397.5,93.5 412.2,102 412.2,85 412.2,68 397.5,76.5 "/>
<polygon fill="#FF6F60" points="412.2,102 427,93.5 441.7,85 427,76.5 412.2,68 412.2,85 "/>
<rect x="382.8" y="119" fill="#F03435" width="0" height="0"/>
<polygon fill="#F03435" points="382.8,119 397.5,127.5 412.2,136 412.2,119 412.2,102 397.5,110.5 "/>
<polygon fill="#FF554A" points="412.2,136 427,127.5 441.7,119 427,110.5 412.2,102 412.2,119 "/>
<polygon fill="#FFA799" points="382.8,153 397.5,161.5 412.2,170 412.2,153 412.2,136 397.5,144.5 "/>
<rect x="382.8" y="153" fill="#FFA799" width="0" height="0"/>
<polygon fill="#FF8B79" points="412.2,170 427,161.5 441.7,153 427,144.5 412.2,136 412.2,153 "/>
<polygon fill="#FF4239" points="412.2,170 397.5,178.5 382.8,187 382.8,187 397.5,195.5 412.2,204 412.2,187 "/>
<rect x="382.8" y="187" fill="#FF4239" width="0" height="0"/>
<polygon fill="#FE4849" points="441.7,187 427,178.5 412.2,170 412.2,187 412.2,204 427,195.5 "/>
<polygon fill="#F03435" points="412.2,204 397.5,212.5 382.8,221 382.8,221 397.5,229.5 412.2,238 412.2,221 "/>
<rect x="382.8" y="221" fill="#F03435" width="0" height="0"/>
<polygon fill="#FD3132" points="441.7,221 427,212.5 412.2,204 412.2,221 412.2,238 427,229.5 "/>
<polygon fill="#FE4849" points="412.2,238 397.5,246.5 382.8,255 397.5,263.5 412.2,272 412.2,255 "/>
<rect x="382.8" y="255" fill="#FE4849" width="0" height="0"/>
<polygon fill="#FD3132" points="441.7,255 427,246.5 412.2,238 412.2,255 412.2,272 427,263.5 "/>
<polygon fill="#FF6053" points="412.2,272 397.5,280.5 382.8,289 382.8,289 397.5,297.5 412.2,306 412.2,289 "/>
<rect x="382.8" y="289" fill="#FF6053" width="0" height="0"/>
<polygon fill="#FFA799" points="441.7,289 427,280.5 412.2,272 412.2,289 412.2,306 427,297.5 "/>
<polygon fill="#FE4C4E" points="412.2,306 397.5,314.5 382.8,323 382.8,323 397.5,331.5 412.2,340 412.2,323 "/>
<rect x="382.8" y="323" fill="#FE4C4E" width="0" height="0"/>
<polygon fill="#FF3B33" points="441.7,323 427,314.5 412.2,306 412.2,323 412.2,340 427,331.5 "/>
<polygon fill="#FF6F60" points="441.7,17 456.4,25.5 471.1,34 471.1,17 471.1,0 456.4,8.5 "/>
<polygon fill="#C22A2B" points="471.1,34 485.8,25.5 500.6,17 485.8,8.5 471.1,0 471.1,17 "/>
<polygon fill="#FD3738" points="441.7,51 456.4,59.5 471.1,68 471.1,51 471.1,34 456.4,42.5 "/>
<polygon fill="#FFA799" points="471.1,68 485.8,59.5 500.6,51 485.8,42.5 471.1,34 471.1,51 "/>
<polygon fill="#FE5052" points="441.7,85 456.4,93.5 471.1,102 471.1,85 471.1,68 456.4,76.5 "/>
<polygon fill="#FF4239" points="471.1,102 485.8,93.5 500.6,85 485.8,76.5 471.1,68 471.1,85 "/>
<polygon fill="#FF6F60" points="441.7,119 456.4,127.5 471.1,136 471.1,119 471.1,102 456.4,110.5 "/>
<polygon fill="#FD3738" points="471.1,136 485.8,127.5 500.6,119 485.8,110.5 471.1,102 471.1,119 "/>
<polygon fill="#FF6053" points="441.7,153 456.4,161.5 471.1,170 471.1,153 471.1,136 456.4,144.5 "/>
<polygon fill="#FF6F60" points="471.1,170 485.8,161.5 500.6,153 485.8,144.5 471.1,136 471.1,153 "/>
<polygon fill="#FD3738" points="471.1,170 456.4,178.5 441.7,187 456.4,195.5 471.1,204 471.1,187 "/>
<polygon fill="#FF554A" points="500.6,187 485.8,178.5 471.1,170 471.1,187 471.1,204 485.8,195.5 "/>
<polygon fill="#FF3B33" points="471.1,204 456.4,212.5 441.7,221 456.4,229.5 471.1,238 471.1,221 "/>
<polygon fill="#FD3738" points="500.6,221 485.8,212.5 471.1,204 471.1,221 471.1,238 485.8,229.5 "/>
<polygon fill="#F03435" points="471.1,238 456.4,246.5 441.7,255 456.4,263.5 471.1,272 471.1,255 "/>
<polygon fill="#FE4041" points="500.6,255 485.8,246.5 471.1,238 471.1,255 471.1,272 485.8,263.5 "/>
<polygon fill="#FE5052" points="471.1,272 456.4,280.5 441.7,289 456.4,297.5 471.1,306 471.1,289 "/>
<polygon fill="#FE4041" points="500.6,289 485.8,280.5 471.1,272 471.1,289 471.1,306 485.8,297.5 "/>
<polygon fill="#FE4041" points="471.1,306 456.4,314.5 441.7,323 456.4,331.5 471.1,340 471.1,323 "/>
<polygon fill="#FD3132" points="500.6,323 485.8,314.5 471.1,306 471.1,323 471.1,340 485.8,331.5 "/>
<polygon fill="#FF6053" points="500.6,17 515.3,25.5 530,34 530,17 530,0 515.3,8.5 "/>
<polygon fill="#FD3132" points="530,34 544.7,25.5 559.5,17 544.7,8.5 530,0 530,17 "/>
<polygon fill="#FFA799" points="500.6,51 515.3,59.5 530,68 530,51 530,34 515.3,42.5 "/>
<polygon fill="#FF6F60" points="530,68 544.7,59.5 559.5,51 544.7,42.5 530,34 530,51 "/>
<polygon fill="#FE4041" points="500.6,85 515.3,93.5 530,102 530,85 530,68 515.3,76.5 "/>
<polygon fill="#F03435" points="530,102 544.7,93.5 559.5,85 544.7,76.5 530,68 530,85 "/>
<polygon fill="#FF8B79" points="500.6,119 515.3,127.5 530,136 530,119 530,102 515.3,110.5 "/>
<polygon fill="#FE5052" points="530,136 544.7,127.5 559.5,119 544.7,110.5 530,102 530,119 "/>
<polygon fill="#F03435" points="500.6,153 515.3,161.5 530,170 530,153 530,136 515.3,144.5 "/>
<polygon fill="#FFA799" points="530,170 544.7,161.5 559.5,153 544.7,144.5 530,136 530,153 "/>
<polygon fill="#FE4C4E" points="530,170 515.3,178.5 500.6,187 515.3,195.5 530,204 530,187 "/>
<polygon fill="#FE4849" points="559.5,187 544.7,178.5 530,170 530,187 530,204 544.7,195.5 "/>
<polygon fill="#FE5052" points="530,204 515.3,212.5 500.6,221 515.3,229.5 530,238 530,221 "/>
<polygon fill="#F03435" points="559.5,221 544.7,212.5 530,204 530,221 530,238 544.7,229.5 "/>
<polygon fill="#FD3738" points="530,238 515.3,246.5 500.6,255 515.3,263.5 530,272 530,255 "/>
<polygon fill="#FE4849" points="559.5,255 544.7,246.5 530,238 530,255 530,272 544.7,263.5 "/>
<polygon fill="#FF3B33" points="530,272 515.3,280.5 500.6,289 515.3,297.5 530,306 530,289 "/>
<polygon fill="#F03435" points="559.5,289 544.7,280.5 530,272 530,289 530,306 544.7,297.5 "/>
<polygon fill="#DE494A" points="530,306 515.3,314.5 500.6,323 515.3,331.5 530,340 530,323 "/>
<polygon fill="#FF6F60" points="559.5,323 544.7,314.5 530,306 530,323 530,340 544.7,331.5 "/>
<polygon fill="#FF4239" points="559.5,17 574.2,25.5 588.9,34 588.9,17 588.9,0 574.2,8.5 "/>
<polygon fill="#C22A2B" points="588.9,34 603.6,25.5 618.3,17 603.6,8.5 588.9,0 588.9,17 "/>
<polygon fill="#FD3738" points="559.5,51 574.2,59.5 588.9,68 588.9,51 588.9,34 574.2,42.5 "/>
<polygon fill="#F03435" points="588.9,68 603.6,59.5 618.3,51 603.6,42.5 588.9,34 588.9,51 "/>
<polygon fill="#FF6053" points="559.5,85 574.2,93.5 588.9,102 588.9,85 588.9,68 574.2,76.5 "/>
<polygon fill="#FE4849" points="588.9,102 603.6,93.5 618.3,85 603.6,76.5 588.9,68 588.9,85 "/>
<polygon fill="#FF4239" points="559.5,119 574.2,127.5 588.9,136 588.9,119 588.9,102 574.2,110.5 "/>
<polygon fill="#FD3738" points="588.9,136 603.6,127.5 618.3,119 603.6,110.5 588.9,102 588.9,119 "/>
<polygon fill="#FE4041" points="559.5,153 574.2,161.5 588.9,170 588.9,153 588.9,136 574.2,144.5 "/>
<polygon fill="#C22A2B" points="588.9,170 603.6,161.5 618.3,153 603.6,144.5 588.9,136 588.9,153 "/>
<polygon fill="#FD2122" points="588.9,170 574.2,178.5 559.5,187 574.2,195.5 588.9,204 588.9,187 "/>
<polygon fill="#FE4041" points="618.3,187 603.6,178.5 588.9,170 588.9,187 588.9,204 603.6,195.5 "/>
<polygon fill="#FD3132" points="588.9,204 574.2,212.5 559.5,221 574.2,229.5 588.9,238 588.9,221 "/>
<polygon fill="#FF6F60" points="618.3,221 603.6,212.5 588.9,204 588.9,221 588.9,238 603.6,229.5 "/>
<polygon fill="#FF6053" points="588.9,238 574.2,246.5 559.5,255 574.2,263.5 588.9,272 588.9,255 "/>
<polygon fill="#FF6F60" points="618.3,255 603.6,246.5 588.9,238 588.9,255 588.9,272 603.6,263.5 "/>
<polygon fill="#FFA799" points="588.9,272 574.2,280.5 559.5,289 574.2,297.5 588.9,306 588.9,289 "/>
<polygon fill="#FD3738" points="618.3,289 603.6,280.5 588.9,272 588.9,289 588.9,306 603.6,297.5 "/>
<polygon fill="#FE4344" points="588.9,306 574.2,314.5 559.5,323 574.2,331.5 588.9,340 588.9,323 "/>
<polygon fill="#C22A2B" points="618.3,323 603.6,314.5 588.9,306 588.9,323 588.9,340 603.6,331.5 "/>
<rect x="618.3" y="17" fill="#F03435" width="0" height="0"/>
<polygon fill="#F03435" points="618.3,17 633.1,25.5 647.8,34 647.8,17 647.8,0 633.1,8.5 "/>
<polygon fill="#FFA799" points="647.8,34 662.5,25.5 677.2,17 662.5,8.5 647.8,0 647.8,17 "/>
<rect x="618.3" y="51" fill="#FE4C4E" width="0" height="0"/>
<polygon fill="#FE4C4E" points="618.3,51 633.1,59.5 647.8,68 647.8,51 647.8,34 633.1,42.5 "/>
<polygon fill="#C22A2B" points="647.8,68 662.5,59.5 677.2,51 662.5,42.5 647.8,34 647.8,51 "/>
<polygon fill="#FD3132" points="618.3,85 633.1,93.5 647.8,102 647.8,85 647.8,68 633.1,76.5 "/>
<rect x="618.3" y="85" fill="#FD3132" width="0" height="0"/>
<polygon fill="#FE5052" points="647.8,68 647.8,85 647.8,102 662.5,93.5 677.2,85 662.5,76.5 "/>
<rect x="618.3" y="119" fill="#C22A2B" width="0" height="0"/>
<polygon fill="#C22A2B" points="618.3,119 633.1,127.5 647.8,136 647.8,119 647.8,102 633.1,110.5 "/>
<polygon fill="#FE4041" points="647.8,102 647.8,119 647.8,136 662.5,127.5 677.2,119 662.5,110.5 "/>
<polygon fill="#FE4344" points="618.3,153 633.1,161.5 647.8,170 647.8,153 647.8,136 633.1,144.5 "/>
<rect x="618.3" y="153" fill="#FE4344" width="0" height="0"/>
<polygon fill="#FF554A" points="647.8,136 647.8,153 647.8,170 662.5,161.5 677.2,153 662.5,144.5 "/>
<rect x="618.3" y="187" fill="#FF6F60" width="0" height="0"/>
<polygon fill="#FF6F60" points="618.3,187 633.1,195.5 647.8,204 647.8,187 647.8,170 633.1,178.5 "/>
<polygon fill="#F03435" points="647.8,170 647.8,187 647.8,204 662.5,195.5 677.2,187 662.5,178.5 "/>
<polygon fill="#FE4C4E" points="618.3,221 633.1,229.5 647.8,238 647.8,221 647.8,204 633.1,212.5 "/>
<rect x="618.3" y="221" fill="#FE4C4E" width="0" height="0"/>
<polygon fill="#C22A2B" points="647.8,204 647.8,221 647.8,238 662.5,229.5 677.2,221 662.5,212.5 "/>
<rect x="618.3" y="255" fill="#FE4041" width="0" height="0"/>
<polygon fill="#FE4041" points="647.8,238 633.1,246.5 618.3,255 633.1,263.5 647.8,272 647.8,255 "/>
<polygon fill="#FF8B79" points="647.8,238 647.8,255 647.8,272 662.5,263.5 677.2,255 662.5,246.5 "/>
<rect x="618.3" y="289" fill="#FD3738" width="0" height="0"/>
<polygon fill="#FD3738" points="647.8,272 633.1,280.5 618.3,289 633.1,297.5 647.8,306 647.8,289 "/>
<polygon fill="#FF8B79" points="677.2,289 662.5,280.5 647.8,272 647.8,289 647.8,306 662.5,297.5 "/>
<rect x="618.3" y="323" fill="#F03435" width="0" height="0"/>
<polygon fill="#F03435" points="647.8,306 633.1,314.5 618.3,323 633.1,331.5 647.8,340 647.8,323 "/>
<polygon fill="#FF554A" points="677.2,323 662.5,314.5 647.8,306 647.8,323 647.8,340 662.5,331.5 "/>
<polygon fill="#FD3132" points="677.2,17 692,25.5 706.7,34 706.7,17 706.7,0 692,8.5 "/>
<polygon fill="#FD2122" points="706.7,0 706.7,17 706.7,34 721.4,25.5 736.1,17 721.4,8.5 "/>
<polygon fill="#FE4344" points="677.2,51 692,59.5 706.7,68 706.7,51 706.7,34 692,42.5 "/>
<polygon fill="#F03435" points="706.7,34 706.7,51 706.7,68 721.4,59.5 736.1,51 721.4,42.5 "/>
<polygon fill="#DE494A" points="677.2,85 692,93.5 706.7,102 706.7,85 706.7,68 692,76.5 "/>
<polygon fill="#FE4C4E" points="706.7,68 706.7,85 706.7,102 721.4,93.5 736.1,85 721.4,76.5 "/>
<polygon fill="#FD2122" points="677.2,119 692,127.5 706.7,136 706.7,119 706.7,102 692,110.5 "/>
<polygon fill="#FF4239" points="706.7,102 706.7,119 706.7,136 721.4,127.5 736.1,119 721.4,110.5 "/>
<polygon fill="#DE494A" points="677.2,153 692,161.5 706.7,170 706.7,153 706.7,136 692,144.5 "/>
<polygon fill="#FE4041" points="706.7,136 706.7,153 706.7,170 721.4,161.5 736.1,153 721.4,144.5 "/>
<polygon fill="#FF4239" points="677.2,187 692,195.5 706.7,204 706.7,187 706.7,170 692,178.5 "/>
<polygon fill="#F03435" points="706.7,170 706.7,187 706.7,204 721.4,195.5 736.1,187 721.4,178.5 "/>
<polygon fill="#FD3738" points="677.2,221 692,229.5 706.7,238 706.7,221 706.7,204 692,212.5 "/>
<polygon fill="#FF3B33" points="706.7,204 706.7,221 706.7,238 721.4,229.5 736.1,221 721.4,212.5 "/>
<polygon fill="#FF6F60" points="677.2,255 692,263.5 706.7,272 706.7,255 706.7,238 692,246.5 "/>
<polygon fill="#FE4041" points="706.7,238 706.7,255 706.7,272 721.4,263.5 736.1,255 721.4,246.5 "/>
<polygon fill="#FF6F60" points="677.2,289 692,297.5 706.7,306 706.7,289 706.7,272 692,280.5 "/>
<polygon fill="#FD3132" points="706.7,272 706.7,289 706.7,306 721.4,297.5 736.1,289 721.4,280.5 "/>
<polygon fill="#FF6053" points="677.2,323 692,331.5 706.7,340 706.7,323 706.7,306 692,314.5 "/>
<polygon fill="#FF8B79" points="706.7,306 706.7,323 706.7,340 706.7,340 721.4,331.5 736.1,323 721.4,314.5 "/>
<polygon fill="#FE4849" points="29.4,323 14.7,331.5 0,340 29.4,340 "/>
<polygon fill="#FF6255" points="29.4,323 29.4,340 58.9,340 44.2,331.5 "/>
<polygon fill="#FD3132" points="88.3,323 73.6,331.5 58.9,340 88.3,340 "/>
<polygon fill="#FE4344" points="88.3,323 88.3,340 117.8,340 103.1,331.5 "/>
<polygon fill="#F03435" points="147.2,323 132.5,331.5 117.8,340 147.2,340 "/>
<polygon fill="#FE4344" points="147.2,323 147.2,340 176.7,340 161.9,331.5 "/>
<polygon fill="#FE4344" points="147.2,323 161.9,331.5 176.7,340 161.9,331.5 "/>
<polygon fill="#FD3132" points="206.1,323 206.1,323 191.4,331.5 176.7,340 206.1,340 "/>
<polygon fill="#FD3132" points="206.1,323 206.1,323 206.1,323 "/>
<polygon fill="#FF6F60" points="206.1,323 206.1,340 235.6,340 220.8,331.5 "/>
<polygon fill="#FF6F60" points="220.8,331.5 206.1,323 206.1,323 "/>
<polygon fill="#FF9783" points="265,323 250.3,331.5 235.6,340 265,340 "/>
<polygon fill="#FE4C4E" points="265,323 265,340 294.4,340 279.7,331.5 "/>
<polygon fill="#DE494A" points="323.9,323 309.2,331.5 294.4,340 323.9,340 "/>
<polygon fill="#C22A2B" points="323.9,323 323.9,340 353.3,340 338.6,331.5 "/>
<polygon fill="#FF9783" points="382.8,323 382.8,323 368.1,331.5 353.3,340 382.8,340 "/>
<polygon fill="#FF9783" points="382.8,323 382.8,323 382.8,323 "/>
<polygon fill="#FF6053" points="382.8,323 382.8,340 412.2,340 397.5,331.5 "/>
<polygon fill="#FF6053" points="397.5,331.5 382.8,323 382.8,323 "/>
<polygon fill="#FE5052" points="441.7,323 427,331.5 412.2,340 441.7,340 "/>
<polygon fill="#FD3132" points="441.7,323 441.7,340 471.1,340 456.4,331.5 "/>
<polygon fill="#FF554A" points="500.6,323 485.8,331.5 471.1,340 500.6,340 "/>
<polygon fill="#FE4344" points="500.6,323 500.6,340 530,340 515.3,331.5 "/>
<polygon fill="#FF6053" points="559.5,323 544.7,331.5 530,340 559.5,340 "/>
<polygon fill="#FF3B33" points="559.5,323 559.5,340 588.9,340 574.2,331.5 "/>
<polygon fill="#FF3B33" points="559.5,323 574.2,331.5 588.9,340 574.2,331.5 "/>
<polygon fill="#FD3132" points="618.3,323 618.3,323 603.6,331.5 588.9,340 618.3,340 "/>
<polygon fill="#FD3132" points="618.3,323 618.3,323 618.3,323 "/>
<polygon fill="#FE4C4E" points="618.3,323 618.3,340 647.8,340 633.1,331.5 "/>
<polygon fill="#FE4C4E" points="633.1,331.5 618.3,323 618.3,323 "/>
<polygon fill="#F03435" points="677.2,323 662.5,331.5 647.8,340 677.2,340 "/>
<polygon fill="#FD3132" points="677.2,323 677.2,340 706.7,340 692,331.5 "/>
<polygon fill="#FD3132" points="706.7,340 706.7,340 692,331.5 "/>
<polygon fill="#FD3132" points="706.7,340 706.7,340 706.7,340 "/>
<polygon fill="#FFA799" points="706.7,340 706.7,340 736.1,340 736.1,323 721.4,331.5 "/>
<polygon fill="#FFA799" points="706.7,340 706.7,340 706.7,340 "/>
<polygon fill="#FE4748" points="29.4,17 29.4,0 0,0 14.7,8.5 "/>
<polygon fill="#FF6759" points="29.4,17 44.2,8.5 58.9,0 29.4,0 "/>
<polygon fill="#FE4849" points="29.4,51 29.4,34 29.4,17 14.7,25.5 0,34 14.7,42.5 "/>
<polygon fill="#FF7E6D" points="58.9,34 44.2,25.5 29.4,17 29.4,34 29.4,51 44.2,42.5 "/>
<polygon fill="#FE5052" points="29.4,85 29.4,68 29.4,51 14.7,59.5 0,68 14.7,76.5 "/>
<polygon fill="#DE494A" points="58.9,68 44.2,59.5 29.4,51 29.4,68 29.4,85 44.2,76.5 "/>
<polygon fill="#FD3132" points="29.4,119 29.4,102 29.4,85 14.7,93.5 0,102 14.7,110.5 "/>
<polygon fill="#FF6053" points="58.9,102 44.2,93.5 29.4,85 29.4,102 29.4,119 44.2,110.5 "/>
<polygon fill="#FD2B2C" points="29.4,153 29.4,136 29.4,119 14.7,127.5 0,136 14.7,144.5 "/>
<polygon fill="#FF7162" points="58.9,136 44.2,127.5 29.4,119 29.4,136 29.4,153 44.2,144.5 "/>
<polygon fill="#FD2728" points="29.4,187 29.4,170 29.4,153 14.7,161.5 0,170 14.7,178.5 "/>
<polygon fill="#FF4B41" points="58.9,170 44.2,161.5 29.4,153 29.4,170 29.4,187 44.2,178.5 "/>
<polygon fill="#FD2C2D" points="29.4,221 29.4,204 29.4,187 14.7,195.5 0,204 14.7,212.5 "/>
<polygon fill="#FF5A4E" points="58.9,204 44.2,195.5 29.4,187 29.4,204 29.4,221 44.2,212.5 "/>
<polygon fill="#FD3738" points="29.4,255 29.4,238 29.4,221 14.7,229.5 0,238 14.7,246.5 "/>
<polygon fill="#FF594D" points="58.9,238 44.2,229.5 29.4,221 29.4,238 29.4,255 44.2,246.5 "/>
<polygon fill="#FE4041" points="29.4,289 29.4,272 29.4,255 14.7,263.5 0,272 14.7,280.5 "/>
<polygon fill="#FF6356" points="58.9,272 44.2,263.5 29.4,255 29.4,272 29.4,289 44.2,280.5 "/>
<polygon fill="#FE3D3E" points="29.4,323 29.4,306 29.4,289 14.7,297.5 0,306 14.7,314.5 "/>
<polygon fill="#FF7364" points="29.4,289 29.4,306 29.4,323 44.2,314.5 58.9,306 44.2,297.5 "/>
<polygon fill="#FF4239" points="88.3,17 88.3,0 58.9,0 73.6,8.5 "/>
<polygon fill="#FF6053" points="88.3,17 103.1,8.5 117.8,0 88.3,0 "/>
<polygon fill="#F03435" points="88.3,51 88.3,34 88.3,17 73.6,25.5 58.9,34 73.6,42.5 "/>
<polygon fill="#FE4849" points="88.3,51 103.1,42.5 117.8,34 103.1,25.5 88.3,17 88.3,34 "/>
<polygon fill="#FE4041" points="88.3,85 88.3,68 88.3,51 73.6,59.5 58.9,68 73.6,76.5 "/>
<polygon fill="#DE494A" points="88.3,85 103.1,76.5 117.8,68 103.1,59.5 88.3,51 88.3,68 "/>
<polygon fill="#FF8B79" points="88.3,119 88.3,102 88.3,85 73.6,93.5 58.9,102 73.6,110.5 "/>
<polygon fill="#FD3738" points="117.8,102 103.1,93.5 88.3,85 88.3,102 88.3,119 103.1,110.5 "/>
<polygon fill="#C22A2B" points="88.3,153 88.3,136 88.3,119 73.6,127.5 58.9,136 73.6,144.5 "/>
<polygon fill="#FF554A" points="117.8,136 103.1,127.5 88.3,119 88.3,136 88.3,153 103.1,144.5 "/>
<polygon fill="#FE4041" points="88.3,187 88.3,170 88.3,153 73.6,161.5 58.9,170 73.6,178.5 "/>
<polygon fill="#FF8B79" points="117.8,170 103.1,161.5 88.3,153 88.3,170 88.3,187 103.1,178.5 "/>
<polygon fill="#FF3B33" points="88.3,221 88.3,204 88.3,187 73.6,195.5 58.9,204 73.6,212.5 "/>
<polygon fill="#FF6F60" points="117.8,204 103.1,195.5 88.3,187 88.3,204 88.3,221 103.1,212.5 "/>
<polygon fill="#FF6F60" points="88.3,255 88.3,238 88.3,221 73.6,229.5 58.9,238 73.6,246.5 "/>
<polygon fill="#FE4041" points="88.3,221 88.3,238 88.3,255 103.1,246.5 117.8,238 103.1,229.5 "/>
<polygon fill="#FF8B79" points="88.3,255 73.6,263.5 58.9,272 73.6,280.5 88.3,289 88.3,272 "/>
<polygon fill="#FF554A" points="88.3,255 88.3,272 88.3,289 103.1,280.5 117.8,272 103.1,263.5 "/>
<polygon fill="#FE4041" points="88.3,289 73.6,297.5 58.9,306 73.6,314.5 88.3,323 88.3,306 "/>
<polygon fill="#FF3B33" points="88.3,289 88.3,306 88.3,323 103.1,314.5 117.8,306 103.1,297.5 "/>
<polygon fill="#FF554A" points="147.2,17 147.2,0 117.8,0 132.5,8.5 "/>
<polygon fill="#FE4C4E" points="147.2,17 161.9,8.5 176.7,0 147.2,0 "/>
<polygon fill="#FE4C4E" points="147.2,17 161.9,8.5 176.7,0 161.9,8.5 "/>
<polygon fill="#FF8B79" points="147.2,51 147.2,34 147.2,17 132.5,25.5 117.8,34 132.5,42.5 "/>
<polygon fill="#FF6053" points="147.2,51 161.9,42.5 176.7,34 161.9,25.5 147.2,17 147.2,34 "/>
<polygon fill="#FF6053" points="176.7,34 161.9,25.5 147.2,17 161.9,25.5 "/>
<polygon fill="#FF6053" points="147.2,51 161.9,42.5 176.7,34 161.9,42.5 "/>
<polygon fill="#FD3132" points="147.2,85 147.2,68 147.2,51 132.5,59.5 117.8,68 132.5,76.5 "/>
<polygon fill="#FF554A" points="147.2,85 161.9,76.5 176.7,68 161.9,59.5 147.2,51 147.2,68 "/>
<polygon fill="#FF554A" points="176.7,68 161.9,59.5 147.2,51 161.9,59.5 "/>
<polygon fill="#FF554A" points="147.2,85 161.9,76.5 176.7,68 161.9,76.5 "/>
<polygon fill="#FF8B79" points="147.2,119 147.2,102 147.2,85 132.5,93.5 117.8,102 132.5,110.5 "/>
<polygon fill="#FF6F60" points="147.2,119 161.9,110.5 176.7,102 161.9,93.5 147.2,85 147.2,102 "/>
<polygon fill="#FF6F60" points="176.7,102 161.9,93.5 147.2,85 161.9,93.5 "/>
<polygon fill="#FF6F60" points="147.2,119 161.9,110.5 176.7,102 161.9,110.5 "/>
<polygon fill="#F03435" points="147.2,153 147.2,136 147.2,119 132.5,127.5 117.8,136 132.5,144.5 "/>
<polygon fill="#FE4041" points="147.2,153 161.9,144.5 176.7,136 161.9,127.5 147.2,119 147.2,136 "/>
<polygon fill="#FE4041" points="176.7,136 161.9,127.5 147.2,119 161.9,127.5 "/>
<polygon fill="#FE4041" points="147.2,153 161.9,144.5 176.7,136 161.9,144.5 "/>
<polygon fill="#FF8B79" points="147.2,187 147.2,170 147.2,153 132.5,161.5 117.8,170 132.5,178.5 "/>
<polygon fill="#FD3132" points="147.2,153 147.2,170 147.2,187 161.9,178.5 176.7,170 161.9,161.5 "/>
<polygon fill="#FD3132" points="147.2,153 161.9,161.5 176.7,170 161.9,161.5 "/>
<polygon fill="#FD3132" points="147.2,187 161.9,178.5 176.7,170 161.9,178.5 "/>
<polygon fill="#FE4C4E" points="147.2,187 132.5,195.5 117.8,204 132.5,212.5 147.2,221 147.2,204 "/>
<polygon fill="#FF6F60" points="147.2,187 147.2,204 147.2,221 161.9,212.5 176.7,204 161.9,195.5 "/>
<polygon fill="#FF6F60" points="147.2,187 161.9,195.5 176.7,204 161.9,195.5 "/>
<polygon fill="#FF6F60" points="147.2,221 161.9,212.5 176.7,204 161.9,212.5 "/>
<polygon fill="#FE4041" points="147.2,221 132.5,229.5 117.8,238 132.5,246.5 147.2,255 147.2,238 "/>
<polygon fill="#FE4849" points="147.2,221 147.2,238 147.2,255 161.9,246.5 176.7,238 161.9,229.5 "/>
<polygon fill="#FE4849" points="147.2,221 161.9,229.5 176.7,238 161.9,229.5 "/>
<polygon fill="#FE4849" points="147.2,255 161.9,246.5 176.7,238 161.9,246.5 "/>
<polygon fill="#FF6F60" points="147.2,255 132.5,263.5 117.8,272 132.5,280.5 147.2,289 147.2,272 "/>
<polygon fill="#FF3B33" points="147.2,255 147.2,272 147.2,289 161.9,280.5 176.7,272 161.9,263.5 "/>
<polygon fill="#FF3B33" points="147.2,255 161.9,263.5 176.7,272 161.9,263.5 "/>
<polygon fill="#FF3B33" points="147.2,289 161.9,280.5 176.7,272 161.9,280.5 "/>
<polygon fill="#FF4239" points="147.2,289 132.5,297.5 117.8,306 132.5,314.5 147.2,323 147.2,306 "/>
<polygon fill="#FD3132" points="147.2,289 147.2,306 147.2,323 161.9,314.5 176.7,306 161.9,297.5 "/>
<polygon fill="#FD3132" points="147.2,289 161.9,297.5 176.7,306 161.9,297.5 "/>
<polygon fill="#FD3132" points="147.2,323 161.9,314.5 176.7,306 161.9,314.5 "/>
<polygon fill="#FD3738" points="206.1,17 206.1,17 206.1,0 176.7,0 191.4,8.5 "/>
<polygon fill="#FD3738" points="206.1,17 206.1,17 206.1,17 "/>
<polygon fill="#FE4041" points="206.1,17 220.8,8.5 235.6,0 206.1,0 "/>
<polygon fill="#FE4041" points="220.8,8.5 206.1,17 206.1,17 "/>
<polygon fill="#FF3B33" points="206.1,51 206.1,51 206.1,34 206.1,17 206.1,17 191.4,25.5 176.7,34 191.4,42.5 "/>
<polygon fill="#FF3B33" points="206.1,17 206.1,17 206.1,17 "/>
<polygon fill="#FF3B33" points="206.1,51 206.1,51 206.1,51 "/>
<polygon fill="#FF6F60" points="206.1,34 206.1,51 220.8,42.5 235.6,34 220.8,25.5 206.1,17 "/>
<polygon fill="#FF6F60" points="220.8,25.5 206.1,17 206.1,17 "/>
<polygon fill="#FF6F60" points="220.8,42.5 206.1,51 206.1,51 "/>
<polygon fill="#FE4C4E" points="206.1,85 206.1,85 206.1,68 206.1,51 206.1,51 191.4,59.5 176.7,68 191.4,76.5 "/>
<polygon fill="#FE4C4E" points="206.1,51 206.1,51 206.1,51 "/>
<polygon fill="#FE4C4E" points="206.1,85 206.1,85 206.1,85 "/>
<polygon fill="#FE4849" points="206.1,68 206.1,85 220.8,76.5 235.6,68 220.8,59.5 206.1,51 "/>
<polygon fill="#FE4849" points="220.8,59.5 206.1,51 206.1,51 "/>
<polygon fill="#FE4849" points="220.8,76.5 206.1,85 206.1,85 "/>
<polygon fill="#FF6F60" points="206.1,119 206.1,119 206.1,102 206.1,85 206.1,85 191.4,93.5 176.7,102 191.4,110.5 "/>
<polygon fill="#FF6F60" points="206.1,85 206.1,85 206.1,85 "/>
<polygon fill="#FF6F60" points="206.1,119 206.1,119 206.1,119 "/>
<polygon fill="#FE4849" points="206.1,102 206.1,119 220.8,110.5 235.6,102 220.8,93.5 206.1,85 "/>
<polygon fill="#FE4849" points="220.8,93.5 206.1,85 206.1,85 "/>
<polygon fill="#FE4849" points="220.8,110.5 206.1,119 206.1,119 "/>
<polygon fill="#FFA799" points="206.1,153 206.1,153 206.1,136 206.1,119 206.1,119 191.4,127.5 176.7,136 191.4,144.5 "/>
<polygon fill="#FFA799" points="206.1,119 206.1,119 206.1,119 "/>
<polygon fill="#FFA799" points="206.1,153 206.1,153 206.1,153 "/>
<polygon fill="#FF3B33" points="206.1,136 206.1,153 220.8,144.5 235.6,136 220.8,127.5 206.1,119 "/>
<polygon fill="#FF3B33" points="220.8,127.5 206.1,119 206.1,119 "/>
<polygon fill="#FF3B33" points="220.8,144.5 206.1,153 206.1,153 "/>
<polygon fill="#FE4849" points="206.1,187 206.1,170 206.1,153 206.1,153 191.4,161.5 176.7,170 191.4,178.5 206.1,187 "/>
<polygon fill="#FE4849" points="206.1,153 206.1,153 206.1,153 "/>
<polygon fill="#FE4849" points="206.1,187 206.1,187 206.1,187 "/>
<polygon fill="#FF6F60" points="206.1,153 206.1,170 206.1,187 220.8,178.5 235.6,170 220.8,161.5 "/>
<polygon fill="#FF6F60" points="220.8,161.5 206.1,153 206.1,153 "/>
<polygon fill="#FF6F60" points="206.1,187 220.8,178.5 206.1,187 "/>
<polygon fill="#FE4041" points="206.1,221 206.1,204 206.1,187 206.1,187 191.4,195.5 176.7,204 191.4,212.5 206.1,221 "/>
<polygon fill="#FE4041" points="206.1,187 206.1,187 206.1,187 "/>
<polygon fill="#FE4041" points="206.1,221 206.1,221 206.1,221 "/>
<polygon fill="#FF8B79" points="206.1,187 206.1,204 206.1,221 220.8,212.5 235.6,204 220.8,195.5 "/>
<polygon fill="#FF8B79" points="220.8,195.5 206.1,187 206.1,187 "/>
<polygon fill="#FF8B79" points="206.1,221 220.8,212.5 206.1,221 "/>
<polygon fill="#FF8B79" points="206.1,255 206.1,238 206.1,221 206.1,221 191.4,229.5 176.7,238 191.4,246.5 206.1,255 "/>
<polygon fill="#FF8B79" points="206.1,221 206.1,221 206.1,221 "/>
<polygon fill="#FF8B79" points="206.1,255 206.1,255 206.1,255 "/>
<polygon fill="#FF9783" points="206.1,221 206.1,238 206.1,255 220.8,246.5 235.6,238 220.8,229.5 "/>
<polygon fill="#FF9783" points="220.8,229.5 206.1,221 206.1,221 "/>
<polygon fill="#FF9783" points="206.1,255 220.8,246.5 206.1,255 "/>
<polygon fill="#FD3738" points="206.1,289 206.1,272 206.1,255 206.1,255 191.4,263.5 176.7,272 191.4,280.5 206.1,289 "/>
<polygon fill="#FD3738" points="206.1,255 206.1,255 206.1,255 "/>
<polygon fill="#FD3738" points="206.1,289 206.1,289 206.1,289 "/>
<polygon fill="#FF6F60" points="206.1,255 206.1,272 206.1,289 220.8,280.5 235.6,272 220.8,263.5 "/>
<polygon fill="#FF6F60" points="220.8,263.5 206.1,255 206.1,255 "/>
<polygon fill="#FF6F60" points="206.1,289 220.8,280.5 206.1,289 "/>
<polygon fill="#FF8B79" points="206.1,323 206.1,306 206.1,289 206.1,289 191.4,297.5 176.7,306 191.4,314.5 206.1,323 "/>
<polygon fill="#FF8B79" points="206.1,289 206.1,289 206.1,289 "/>
<polygon fill="#FF8B79" points="206.1,323 206.1,323 206.1,323 "/>
<polygon fill="#FE4849" points="206.1,289 206.1,306 206.1,323 220.8,314.5 235.6,306 220.8,297.5 "/>
<polygon fill="#FE4849" points="220.8,297.5 206.1,289 206.1,289 "/>
<polygon fill="#FE4849" points="206.1,323 220.8,314.5 206.1,323 "/>
<polygon fill="#FF6F60" points="265,17 265,0 235.6,0 250.3,8.5 "/>
<polygon fill="#FF554A" points="265,17 279.7,8.5 294.4,0 265,0 "/>
<polygon fill="#FF8B79" points="265,51 265,34 265,17 250.3,25.5 235.6,34 250.3,42.5 "/>
<polygon fill="#FF9783" points="265,51 279.7,42.5 294.4,34 279.7,25.5 265,17 265,34 "/>
<polygon fill="#FE4849" points="265,85 265,68 265,51 250.3,59.5 235.6,68 250.3,76.5 "/>
<polygon fill="#FF6F60" points="265,85 279.7,76.5 294.4,68 279.7,59.5 265,51 265,68 "/>
<polygon fill="#FF554A" points="265,119 265,102 265,85 250.3,93.5 235.6,102 250.3,110.5 "/>
<polygon fill="#FE4041" points="265,119 279.7,110.5 294.4,102 279.7,93.5 265,85 265,102 "/>
<polygon fill="#FFA799" points="265,153 265,136 265,119 250.3,127.5 235.6,136 250.3,144.5 "/>
<polygon fill="#FD3132" points="265,153 279.7,144.5 294.4,136 279.7,127.5 265,119 265,136 "/>
<polygon fill="#FE4041" points="265,153 250.3,161.5 235.6,170 250.3,178.5 265,187 265,170 "/>
<polygon fill="#FE4849" points="265,153 265,170 265,187 279.7,178.5 294.4,170 279.7,161.5 "/>
<polygon fill="#C22A2B" points="265,187 250.3,195.5 235.6,204 250.3,212.5 265,221 265,204 "/>
<polygon fill="#FF554A" points="265,187 265,204 265,221 279.7,212.5 294.4,204 279.7,195.5 "/>
<polygon fill="#FF3B33" points="265,221 250.3,229.5 235.6,238 250.3,246.5 265,255 265,238 "/>
<polygon fill="#FE4041" points="265,221 265,238 265,255 279.7,246.5 294.4,238 279.7,229.5 "/>
<polygon fill="#F03435" points="265,255 250.3,263.5 235.6,272 250.3,280.5 265,289 265,272 "/>
<polygon fill="#FE4849" points="265,255 265,272 265,289 279.7,280.5 294.4,272 279.7,263.5 "/>
<polygon fill="#FE4849" points="265,289 250.3,297.5 235.6,306 250.3,314.5 265,323 265,306 "/>
<polygon fill="#FD3132" points="265,289 265,306 265,323 279.7,314.5 294.4,306 279.7,297.5 "/>
<polygon fill="#F03435" points="323.9,17 323.9,0 294.4,0 309.2,8.5 "/>
<polygon fill="#FF6F60" points="323.9,17 338.6,8.5 353.3,0 323.9,0 "/>
<polygon fill="#FF6053" points="323.9,51 323.9,34 323.9,17 309.2,25.5 294.4,34 309.2,42.5 "/>
<polygon fill="#FF554A" points="323.9,51 338.6,42.5 353.3,34 338.6,25.5 323.9,17 323.9,34 "/>
<polygon fill="#FF3B33" points="323.9,85 323.9,68 323.9,51 309.2,59.5 294.4,68 309.2,76.5 "/>
<polygon fill="#C22A2B" points="323.9,85 338.6,76.5 353.3,68 338.6,59.5 323.9,51 323.9,68 "/>
<polygon fill="#FD3132" points="323.9,119 323.9,102 323.9,85 309.2,93.5 294.4,102 309.2,110.5 "/>
<polygon fill="#FE4041" points="323.9,119 338.6,110.5 353.3,102 338.6,93.5 323.9,85 323.9,102 "/>
<polygon fill="#FE5052" points="323.9,153 323.9,136 323.9,119 309.2,127.5 294.4,136 309.2,144.5 "/>
<polygon fill="#FF3B33" points="323.9,153 338.6,144.5 353.3,136 338.6,127.5 323.9,119 323.9,136 "/>
<polygon fill="#FE4344" points="323.9,153 309.2,161.5 294.4,170 309.2,178.5 323.9,187 323.9,170 "/>
<polygon fill="#FF6F60" points="323.9,153 323.9,170 323.9,187 338.6,178.5 353.3,170 338.6,161.5 "/>
<polygon fill="#FF6F60" points="323.9,187 309.2,195.5 294.4,204 309.2,212.5 323.9,221 323.9,204 "/>
<polygon fill="#FF8B79" points="323.9,187 323.9,204 323.9,221 338.6,212.5 353.3,204 338.6,195.5 "/>
<polygon fill="#FE4041" points="323.9,221 309.2,229.5 294.4,238 309.2,246.5 323.9,255 323.9,238 "/>
<polygon fill="#FE4849" points="323.9,221 323.9,238 323.9,255 338.6,246.5 353.3,238 338.6,229.5 "/>
<polygon fill="#FF6F60" points="323.9,255 309.2,263.5 294.4,272 309.2,280.5 323.9,289 323.9,272 "/>
<polygon fill="#FF8B79" points="323.9,255 323.9,272 323.9,289 338.6,280.5 353.3,272 338.6,263.5 "/>
<polygon fill="#FE4041" points="323.9,289 309.2,297.5 294.4,306 309.2,314.5 323.9,323 323.9,306 "/>
<polygon fill="#FF3B33" points="323.9,289 323.9,306 323.9,323 338.6,314.5 353.3,306 338.6,297.5 "/>
<polygon fill="#FF4239" points="382.8,17 382.8,17 382.8,0 353.3,0 368.1,8.5 "/>
<polygon fill="#FF4239" points="382.8,17 382.8,17 382.8,17 "/>
<polygon fill="#FF9783" points="382.8,17 397.5,8.5 412.2,0 382.8,0 "/>
<polygon fill="#FF9783" points="397.5,8.5 382.8,17 382.8,17 "/>
<polygon fill="#FE5052" points="382.8,51 382.8,51 382.8,34 382.8,17 382.8,17 368.1,25.5 353.3,34 368.1,42.5 "/>
<polygon fill="#FE5052" points="382.8,17 382.8,17 382.8,17 "/>
<polygon fill="#FE5052" points="382.8,51 382.8,51 382.8,51 "/>
<polygon fill="#FF3B33" points="382.8,34 382.8,51 397.5,42.5 412.2,34 397.5,25.5 382.8,17 "/>
<polygon fill="#FF3B33" points="397.5,25.5 382.8,17 382.8,17 "/>
<polygon fill="#FF3B33" points="397.5,42.5 382.8,51 382.8,51 "/>
<polygon fill="#FE4041" points="382.8,85 382.8,68 382.8,51 368.1,59.5 353.3,68 368.1,76.5 "/>
<polygon fill="#FE4041" points="382.8,51 382.8,51 382.8,51 "/>
<polygon fill="#FE4041" points="382.8,85 382.8,85 382.8,85 "/>
<polygon fill="#FD3132" points="382.8,85 382.8,85 382.8,85 "/>
<polygon fill="#FD3132" points="382.8,85 397.5,76.5 412.2,68 397.5,59.5 382.8,51 382.8,68 "/>
<polygon fill="#FD3132" points="382.8,51 382.8,51 382.8,51 "/>
<polygon fill="#FD3132" points="382.8,51 382.8,68 382.8,85 382.8,85 382.8,85 382.8,68 382.8,51 382.8,51 "/>
<polygon fill="#FD3132" points="382.8,119 382.8,102 382.8,85 368.1,93.5 353.3,102 368.1,110.5 "/>
<polygon fill="#FE4849" points="382.8,102 382.8,119 397.5,110.5 412.2,102 397.5,93.5 382.8,85 "/>
<polygon fill="#FE4849" points="397.5,93.5 382.8,85 382.8,85 "/>
<polygon fill="#FE4849" points="397.5,110.5 382.8,119 382.8,119 "/>
<polygon fill="#FE4041" points="382.8,153 382.8,153 382.8,136 382.8,119 382.8,119 368.1,127.5 353.3,136 368.1,144.5 "/>
<polygon fill="#FE4041" points="382.8,119 382.8,119 382.8,119 "/>
<polygon fill="#FE4041" points="382.8,153 382.8,153 382.8,153 "/>
<polygon fill="#FF8B79" points="382.8,136 382.8,153 397.5,144.5 412.2,136 397.5,127.5 382.8,119 "/>
<polygon fill="#FF8B79" points="397.5,127.5 382.8,119 382.8,119 "/>
<polygon fill="#FF8B79" points="397.5,144.5 382.8,153 382.8,153 "/>
<polygon fill="#FF554A" points="382.8,187 382.8,170 382.8,153 382.8,153 368.1,161.5 353.3,170 368.1,178.5 382.8,187 "/>
<polygon fill="#FF554A" points="382.8,153 382.8,153 382.8,153 "/>
<polygon fill="#FF554A" points="382.8,187 382.8,187 382.8,187 "/>
<polygon fill="#FF6053" points="382.8,153 382.8,170 382.8,187 397.5,178.5 412.2,170 397.5,161.5 "/>
<polygon fill="#FF6053" points="397.5,161.5 382.8,153 382.8,153 "/>
<polygon fill="#FF6053" points="382.8,187 397.5,178.5 382.8,187 "/>
<polygon fill="#FF3B33" points="382.8,204 382.8,187 368.1,195.5 353.3,204 368.1,212.5 382.8,221 "/>
<polygon fill="#FF3B33" points="382.8,187 382.8,187 382.8,187 "/>
<polygon fill="#FF3B33" points="382.8,221 382.8,221 382.8,221 "/>
<polygon fill="#FD3132" points="382.8,221 382.8,221 382.8,221 "/>
<polygon fill="#FD3132" points="382.8,187 382.8,187 382.8,187 "/>
<polygon fill="#FD3132" points="382.8,187 382.8,204 382.8,221 397.5,212.5 412.2,204 397.5,195.5 "/>
<polygon fill="#FD3132" points="382.8,187 382.8,187 382.8,187 382.8,204 382.8,221 382.8,221 382.8,221 382.8,204 "/>
<polygon fill="#C22A2B" points="382.8,255 382.8,238 382.8,221 382.8,221 368.1,229.5 353.3,238 368.1,246.5 382.8,255 "/>
<polygon fill="#C22A2B" points="382.8,221 382.8,221 382.8,221 "/>
<polygon fill="#C22A2B" points="382.8,255 382.8,255 382.8,255 "/>
<polygon fill="#FF554A" points="382.8,221 382.8,238 382.8,255 397.5,246.5 412.2,238 397.5,229.5 "/>
<polygon fill="#FF554A" points="397.5,229.5 382.8,221 382.8,221 "/>
<polygon fill="#FF554A" points="382.8,255 397.5,246.5 382.8,255 "/>
<polygon fill="#FF8B79" points="382.8,289 382.8,272 382.8,255 382.8,255 368.1,263.5 353.3,272 368.1,280.5 382.8,289 "/>
<polygon fill="#FF8B79" points="382.8,255 382.8,255 382.8,255 "/>
<polygon fill="#FF8B79" points="382.8,289 382.8,289 382.8,289 "/>
<polygon fill="#FD3132" points="382.8,255 382.8,272 382.8,289 397.5,280.5 412.2,272 397.5,263.5 "/>
<polygon fill="#FD3132" points="397.5,263.5 382.8,255 382.8,255 "/>
<polygon fill="#FD3132" points="382.8,289 397.5,280.5 382.8,289 "/>
<polygon fill="#FE4849" points="382.8,306 382.8,289 368.1,297.5 353.3,306 368.1,314.5 382.8,323 "/>
<polygon fill="#FE4849" points="382.8,289 382.8,289 382.8,289 "/>
<polygon fill="#FE4849" points="382.8,323 382.8,323 382.8,323 "/>
<polygon fill="#FD3132" points="382.8,323 382.8,323 382.8,323 "/>
<polygon fill="#FD3132" points="382.8,289 382.8,289 382.8,289 "/>
<polygon fill="#FD3132" points="382.8,289 382.8,306 382.8,323 397.5,314.5 412.2,306 397.5,297.5 "/>
<polygon fill="#FD3132" points="382.8,289 382.8,289 382.8,289 382.8,306 382.8,323 382.8,323 382.8,323 382.8,306 "/>
<polygon fill="#FD3132" points="441.7,17 441.7,0 412.2,0 427,8.5 "/>
<polygon fill="#FF6053" points="441.7,17 456.4,8.5 471.1,0 441.7,0 "/>
<polygon fill="#F03435" points="441.7,51 441.7,34 441.7,17 427,25.5 412.2,34 427,42.5 "/>
<polygon fill="#FF8B79" points="441.7,51 456.4,42.5 471.1,34 456.4,25.5 441.7,17 441.7,34 "/>
<polygon fill="#FD3132" points="441.7,85 441.7,68 441.7,51 427,59.5 412.2,68 427,76.5 "/>
<polygon fill="#FF554A" points="441.7,85 456.4,76.5 471.1,68 456.4,59.5 441.7,51 441.7,68 "/>
<polygon fill="#FE4C4E" points="441.7,119 441.7,102 441.7,85 427,93.5 412.2,102 427,110.5 "/>
<polygon fill="#FE4849" points="441.7,119 456.4,110.5 471.1,102 456.4,93.5 441.7,85 441.7,102 "/>
<polygon fill="#FF6F60" points="441.7,153 441.7,136 441.7,119 427,127.5 412.2,136 427,144.5 "/>
<polygon fill="#FF9783" points="441.7,153 456.4,144.5 471.1,136 456.4,127.5 441.7,119 441.7,136 "/>
<polygon fill="#FF6F60" points="441.7,153 427,161.5 412.2,170 427,178.5 441.7,187 441.7,170 "/>
<polygon fill="#FE4849" points="441.7,153 441.7,170 441.7,187 456.4,178.5 471.1,170 456.4,161.5 "/>
<polygon fill="#FF6053" points="441.7,187 427,195.5 412.2,204 427,212.5 441.7,221 441.7,204 "/>
<polygon fill="#FF6F60" points="441.7,187 441.7,204 441.7,221 456.4,212.5 471.1,204 456.4,195.5 "/>
<polygon fill="#C22A2B" points="441.7,221 427,229.5 412.2,238 427,246.5 441.7,255 441.7,238 "/>
<polygon fill="#FF8B79" points="441.7,221 441.7,238 441.7,255 456.4,246.5 471.1,238 456.4,229.5 "/>
<polygon fill="#FF4239" points="441.7,255 427,263.5 412.2,272 427,280.5 441.7,289 441.7,272 "/>
<polygon fill="#FE4849" points="441.7,255 441.7,272 441.7,289 456.4,280.5 471.1,272 456.4,263.5 "/>
<polygon fill="#C22A2B" points="441.7,289 427,297.5 412.2,306 427,314.5 441.7,323 441.7,306 "/>
<polygon fill="#FD3132" points="441.7,289 441.7,306 441.7,323 456.4,314.5 471.1,306 456.4,297.5 "/>
<polygon fill="#F03435" points="500.6,17 500.6,0 471.1,0 485.8,8.5 "/>
<polygon fill="#FF9783" points="500.6,17 515.3,8.5 530,0 500.6,0 "/>
<polygon fill="#FE4041" points="500.6,51 500.6,34 500.6,17 485.8,25.5 471.1,34 485.8,42.5 "/>
<polygon fill="#FF554A" points="500.6,51 515.3,42.5 530,34 515.3,25.5 500.6,17 500.6,34 "/>
<polygon fill="#FD3132" points="500.6,85 500.6,68 500.6,51 485.8,59.5 471.1,68 485.8,76.5 "/>
<polygon fill="#FE4849" points="500.6,85 515.3,76.5 530,68 515.3,59.5 500.6,51 500.6,68 "/>
<polygon fill="#FE4041" points="500.6,119 500.6,102 500.6,85 485.8,93.5 471.1,102 485.8,110.5 "/>
<polygon fill="#FE4C4E" points="500.6,119 515.3,110.5 530,102 515.3,93.5 500.6,85 500.6,102 "/>
<polygon fill="#FF3B33" points="500.6,153 500.6,136 500.6,119 485.8,127.5 471.1,136 485.8,144.5 "/>
<polygon fill="#FD3132" points="500.6,153 515.3,144.5 530,136 515.3,127.5 500.6,119 500.6,136 "/>
<polygon fill="#FF4239" points="500.6,153 485.8,161.5 471.1,170 485.8,178.5 500.6,187 500.6,170 "/>
<polygon fill="#FF3B33" points="500.6,153 500.6,170 500.6,187 515.3,178.5 530,170 515.3,161.5 "/>
<polygon fill="#C22A2B" points="500.6,187 485.8,195.5 471.1,204 485.8,212.5 500.6,221 500.6,204 "/>
<polygon fill="#FF8B79" points="500.6,187 500.6,204 500.6,221 515.3,212.5 530,204 515.3,195.5 "/>
<polygon fill="#FF8B79" points="500.6,221 485.8,229.5 471.1,238 485.8,246.5 500.6,255 500.6,238 "/>
<polygon fill="#FE4041" points="500.6,221 500.6,238 500.6,255 515.3,246.5 530,238 515.3,229.5 "/>
<polygon fill="#FF554A" points="500.6,255 485.8,263.5 471.1,272 485.8,280.5 500.6,289 500.6,272 "/>
<polygon fill="#FF6F60" points="500.6,255 500.6,272 500.6,289 515.3,280.5 530,272 515.3,263.5 "/>
<polygon fill="#FE4344" points="500.6,289 485.8,297.5 471.1,306 485.8,314.5 500.6,323 500.6,306 "/>
<polygon fill="#C22A2B" points="500.6,289 500.6,306 500.6,323 515.3,314.5 530,306 515.3,297.5 "/>
<polygon fill="#FD3738" points="559.5,17 559.5,0 530,0 544.7,8.5 "/>
<polygon fill="#FF6F60" points="559.5,17 574.2,8.5 588.9,0 559.5,0 "/>
<polygon fill="#FF6F60" points="559.5,17 574.2,8.5 588.9,0 574.2,8.5 "/>
<polygon fill="#FE4849" points="559.5,51 559.5,34 559.5,17 544.7,25.5 530,34 544.7,42.5 "/>
<polygon fill="#FF8B79" points="559.5,51 574.2,42.5 588.9,34 574.2,25.5 559.5,17 559.5,34 "/>
<polygon fill="#FF8B79" points="588.9,34 574.2,25.5 559.5,17 574.2,25.5 "/>
<polygon fill="#FF8B79" points="559.5,51 574.2,42.5 588.9,34 574.2,42.5 "/>
<polygon fill="#FF3B33" points="559.5,85 559.5,68 559.5,51 544.7,59.5 530,68 544.7,76.5 "/>
<polygon fill="#FF554A" points="559.5,85 574.2,76.5 588.9,68 574.2,59.5 559.5,51 559.5,68 "/>
<polygon fill="#FF554A" points="588.9,68 574.2,59.5 559.5,51 574.2,59.5 "/>
<polygon fill="#FF554A" points="559.5,85 574.2,76.5 588.9,68 574.2,76.5 "/>
<polygon fill="#FF6F60" points="559.5,119 559.5,102 559.5,85 544.7,93.5 530,102 544.7,110.5 "/>
<polygon fill="#FF8B79" points="559.5,119 574.2,110.5 588.9,102 574.2,93.5 559.5,85 559.5,102 "/>
<polygon fill="#FF8B79" points="588.9,102 574.2,93.5 559.5,85 574.2,93.5 "/>
<polygon fill="#FF8B79" points="559.5,119 574.2,110.5 588.9,102 574.2,110.5 "/>
<polygon fill="#FF554A" points="559.5,153 559.5,136 559.5,119 544.7,127.5 530,136 544.7,144.5 "/>
<polygon fill="#FF3B33" points="559.5,153 574.2,144.5 588.9,136 574.2,127.5 559.5,119 559.5,136 "/>
<polygon fill="#FF3B33" points="588.9,136 574.2,127.5 559.5,119 574.2,127.5 "/>
<polygon fill="#FF3B33" points="559.5,153 574.2,144.5 588.9,136 574.2,144.5 "/>
<polygon fill="#FE4041" points="559.5,153 544.7,161.5 530,170 544.7,178.5 559.5,187 559.5,170 "/>
<polygon fill="#FE4849" points="559.5,153 559.5,170 559.5,187 574.2,178.5 588.9,170 574.2,161.5 "/>
<polygon fill="#FE4849" points="559.5,153 574.2,161.5 588.9,170 574.2,161.5 "/>
<polygon fill="#FE4849" points="559.5,187 574.2,178.5 588.9,170 574.2,178.5 "/>
<polygon fill="#FF6F60" points="559.5,187 544.7,195.5 530,204 544.7,212.5 559.5,221 559.5,204 "/>
<polygon fill="#C22A2B" points="559.5,187 559.5,204 559.5,221 574.2,212.5 588.9,204 574.2,195.5 "/>
<polygon fill="#C22A2B" points="559.5,187 574.2,195.5 588.9,204 574.2,195.5 "/>
<polygon fill="#C22A2B" points="559.5,221 574.2,212.5 588.9,204 574.2,212.5 "/>
<polygon fill="#FF554A" points="559.5,221 544.7,229.5 530,238 544.7,246.5 559.5,255 559.5,238 "/>
<polygon fill="#FF8B79" points="559.5,221 559.5,238 559.5,255 574.2,246.5 588.9,238 574.2,229.5 "/>
<polygon fill="#FF8B79" points="559.5,221 574.2,229.5 588.9,238 574.2,229.5 "/>
<polygon fill="#FF8B79" points="559.5,255 574.2,246.5 588.9,238 574.2,246.5 "/>
<polygon fill="#FF6F60" points="559.5,255 544.7,263.5 530,272 544.7,280.5 559.5,289 559.5,272 "/>
<polygon fill="#FD3132" points="559.5,255 559.5,272 559.5,289 574.2,280.5 588.9,272 574.2,263.5 "/>
<polygon fill="#FE4041" points="559.5,289 544.7,297.5 530,306 544.7,314.5 559.5,323 559.5,306 "/>
<polygon fill="#FF554A" points="559.5,289 559.5,306 559.5,323 574.2,314.5 588.9,306 574.2,297.5 "/>
<polygon fill="#FF554A" points="559.5,289 574.2,297.5 588.9,306 574.2,297.5 "/>
<polygon fill="#FF554A" points="559.5,323 574.2,314.5 588.9,306 574.2,314.5 "/>
<polygon fill="#FD3132" points="618.3,17 618.3,17 618.3,0 588.9,0 603.6,8.5 "/>
<polygon fill="#FD3132" points="618.3,17 618.3,17 618.3,17 "/>
<polygon fill="#C22A2B" points="618.3,17 633.1,8.5 647.8,0 618.3,0 "/>
<polygon fill="#C22A2B" points="633.1,8.5 618.3,17 618.3,17 "/>
<polygon fill="#FD3132" points="618.3,51 618.3,51 618.3,34 618.3,17 618.3,17 603.6,25.5 588.9,34 603.6,42.5 "/>
<polygon fill="#FD3132" points="618.3,17 618.3,17 618.3,17 "/>
<polygon fill="#FD3132" points="618.3,51 618.3,51 618.3,51 "/>
<polygon fill="#FE5052" points="618.3,34 618.3,51 633.1,42.5 647.8,34 633.1,25.5 618.3,17 "/>
<polygon fill="#FE5052" points="633.1,25.5 618.3,17 618.3,17 "/>
<polygon fill="#FE5052" points="633.1,42.5 618.3,51 618.3,51 "/>
<polygon fill="#FF6F60" points="618.3,85 618.3,85 618.3,68 618.3,51 618.3,51 603.6,59.5 588.9,68 603.6,76.5 "/>
<polygon fill="#FF6F60" points="618.3,51 618.3,51 618.3,51 "/>
<polygon fill="#FF6F60" points="618.3,85 618.3,85 618.3,85 "/>
<polygon fill="#FF4239" points="618.3,68 618.3,85 633.1,76.5 647.8,68 633.1,59.5 618.3,51 "/>
<polygon fill="#FF4239" points="633.1,59.5 618.3,51 618.3,51 "/>
<polygon fill="#FF4239" points="633.1,76.5 618.3,85 618.3,85 "/>
<polygon fill="#FE4344" points="618.3,119 618.3,119 618.3,102 618.3,85 618.3,85 603.6,93.5 588.9,102 603.6,110.5 "/>
<polygon fill="#FE4344" points="618.3,85 618.3,85 618.3,85 "/>
<polygon fill="#FE4344" points="618.3,119 618.3,119 618.3,119 "/>
<polygon fill="#FE4041" points="618.3,85 618.3,102 618.3,119 633.1,110.5 647.8,102 633.1,93.5 "/>
<polygon fill="#FE4041" points="633.1,93.5 618.3,85 618.3,85 "/>
<polygon fill="#FE4041" points="633.1,110.5 618.3,119 618.3,119 "/>
<polygon fill="#FF554A" points="603.6,127.5 588.9,136 603.6,144.5 618.3,153 618.3,153 618.3,136 618.3,119 618.3,119 "/>
<polygon fill="#FF554A" points="618.3,119 618.3,119 618.3,119 "/>
<polygon fill="#FF554A" points="618.3,153 618.3,153 618.3,153 "/>
<polygon fill="#FD3132" points="618.3,119 618.3,136 618.3,153 633.1,144.5 647.8,136 633.1,127.5 "/>
<polygon fill="#FD3132" points="633.1,127.5 618.3,119 618.3,119 "/>
<polygon fill="#FD3132" points="633.1,144.5 618.3,153 618.3,153 "/>
<polygon fill="#FF6053" points="603.6,161.5 588.9,170 603.6,178.5 618.3,187 618.3,187 618.3,170 618.3,153 618.3,153 "/>
<polygon fill="#FF6053" points="618.3,153 618.3,153 618.3,153 "/>
<polygon fill="#FF6053" points="618.3,187 618.3,187 618.3,187 "/>
<polygon fill="#FE4849" points="618.3,153 618.3,170 618.3,187 633.1,178.5 647.8,170 633.1,161.5 "/>
<polygon fill="#FE4849" points="633.1,161.5 618.3,153 618.3,153 "/>
<polygon fill="#FE4849" points="633.1,178.5 618.3,187 618.3,187 "/>
<polygon fill="#FF554A" points="603.6,195.5 588.9,204 603.6,212.5 618.3,221 618.3,221 618.3,204 618.3,187 618.3,187 "/>
<polygon fill="#FF554A" points="618.3,187 618.3,187 618.3,187 "/>
<polygon fill="#FF554A" points="618.3,221 618.3,221 618.3,221 "/>
<polygon fill="#FF8B79" points="618.3,187 618.3,204 618.3,221 633.1,212.5 647.8,204 633.1,195.5 "/>
<polygon fill="#FF8B79" points="633.1,195.5 618.3,187 618.3,187 "/>
<polygon fill="#FF8B79" points="633.1,212.5 618.3,221 618.3,221 "/>
<polygon fill="#FF3B33" points="618.3,255 618.3,238 618.3,221 618.3,221 603.6,229.5 588.9,238 603.6,246.5 618.3,255 "/>
<polygon fill="#FF3B33" points="618.3,221 618.3,221 618.3,221 "/>
<polygon fill="#FF3B33" points="618.3,255 618.3,255 618.3,255 "/>
<polygon fill="#FF554A" points="618.3,221 618.3,238 618.3,255 633.1,246.5 647.8,238 633.1,229.5 "/>
<polygon fill="#FF554A" points="633.1,229.5 618.3,221 618.3,221 "/>
<polygon fill="#FF554A" points="618.3,255 633.1,246.5 618.3,255 "/>
<polygon fill="#FE4849" points="618.3,289 618.3,272 618.3,255 618.3,255 603.6,263.5 588.9,272 603.6,280.5 618.3,289 "/>
<polygon fill="#FE4849" points="618.3,255 618.3,255 618.3,255 "/>
<polygon fill="#FE4849" points="618.3,289 618.3,289 618.3,289 "/>
<polygon fill="#C22A2B" points="618.3,255 618.3,272 618.3,289 633.1,280.5 647.8,272 633.1,263.5 "/>
<polygon fill="#C22A2B" points="633.1,263.5 618.3,255 618.3,255 "/>
<polygon fill="#C22A2B" points="618.3,289 633.1,280.5 618.3,289 "/>
<polygon fill="#FF6F60" points="618.3,323 618.3,306 618.3,289 618.3,289 603.6,297.5 588.9,306 603.6,314.5 618.3,323 "/>
<polygon fill="#FF6F60" points="618.3,289 618.3,289 618.3,289 "/>
<polygon fill="#FF6F60" points="618.3,323 618.3,323 618.3,323 "/>
<polygon fill="#FE4849" points="618.3,289 618.3,306 618.3,323 633.1,314.5 647.8,306 633.1,297.5 "/>
<polygon fill="#FE4849" points="633.1,297.5 618.3,289 618.3,289 "/>
<polygon fill="#FE4849" points="618.3,323 633.1,314.5 618.3,323 "/>
<polygon fill="#FE4344" points="677.2,17 677.2,0 647.8,0 662.5,8.5 "/>
<polygon fill="#FE5052" points="677.2,17 692,8.5 706.7,0 677.2,0 "/>
<polygon fill="#FE4041" points="677.2,51 677.2,34 677.2,17 662.5,25.5 647.8,34 662.5,42.5 "/>
<polygon fill="#FF4239" points="677.2,17 677.2,34 677.2,51 692,42.5 706.7,34 692,25.5 "/>
<polygon fill="#FE4041" points="647.8,68 662.5,76.5 677.2,85 677.2,68 677.2,51 662.5,59.5 "/>
<polygon fill="#FD3132" points="677.2,51 677.2,68 677.2,85 692,76.5 706.7,68 692,59.5 "/>
<polygon fill="#FD2122" points="647.8,102 662.5,110.5 677.2,119 677.2,102 677.2,85 662.5,93.5 "/>
<polygon fill="#F03435" points="677.2,85 677.2,102 677.2,119 692,110.5 706.7,102 692,93.5 "/>
<polygon fill="#FE4041" points="647.8,136 662.5,144.5 677.2,153 677.2,136 677.2,119 662.5,127.5 "/>
<polygon fill="#FE5052" points="677.2,119 677.2,136 677.2,153 692,144.5 706.7,136 692,127.5 "/>
<polygon fill="#C22A2B" points="647.8,170 662.5,178.5 677.2,187 677.2,170 677.2,153 662.5,161.5 "/>
<polygon fill="#FE4849" points="677.2,153 677.2,170 677.2,187 692,178.5 706.7,170 692,161.5 "/>
<polygon fill="#FF9783" points="647.8,204 662.5,212.5 677.2,221 677.2,204 677.2,187 662.5,195.5 "/>
<polygon fill="#FF554A" points="677.2,187 677.2,204 677.2,221 692,212.5 706.7,204 692,195.5 "/>
<polygon fill="#FF3B33" points="647.8,238 662.5,246.5 677.2,255 677.2,238 677.2,221 662.5,229.5 "/>
<polygon fill="#FD3132" points="677.2,221 677.2,238 677.2,255 692,246.5 706.7,238 692,229.5 "/>
<polygon fill="#FF6F60" points="647.8,272 662.5,280.5 677.2,289 677.2,272 677.2,255 662.5,263.5 "/>
<polygon fill="#FE4849" points="677.2,255 677.2,272 677.2,289 692,280.5 706.7,272 692,263.5 "/>
<polygon fill="#FE4344" points="677.2,289 662.5,297.5 647.8,306 662.5,314.5 677.2,323 677.2,306 "/>
<polygon fill="#FF554A" points="677.2,289 677.2,306 677.2,323 692,314.5 706.7,306 692,297.5 "/>
<polygon fill="#DE494A" points="721.4,8.5 736.1,17 736.1,0 706.7,0 "/>
<polygon fill="#FE4041" points="706.7,34 721.4,42.5 736.1,51 736.1,34 736.1,17 721.4,25.5 "/>
<polygon fill="#FFA799" points="706.7,68 721.4,76.5 736.1,85 736.1,68 736.1,51 721.4,59.5 "/>
<polygon fill="#C22A2B" points="706.7,102 721.4,110.5 736.1,119 736.1,102 736.1,85 721.4,93.5 "/>
<polygon fill="#FE4041" points="706.7,136 721.4,144.5 736.1,153 736.1,136 736.1,119 721.4,127.5 "/>
<polygon fill="#FD3132" points="706.7,170 721.4,178.5 736.1,187 736.1,170 736.1,153 721.4,161.5 "/>
<polygon fill="#C22A2B" points="706.7,204 721.4,212.5 736.1,221 736.1,204 736.1,187 721.4,195.5 "/>
<polygon fill="#F03435" points="706.7,238 721.4,246.5 736.1,255 736.1,238 736.1,221 721.4,229.5 "/>
<polygon fill="#FFA799" points="706.7,272 721.4,280.5 736.1,289 736.1,272 736.1,255 721.4,263.5 "/>
<polygon fill="#C22A2B" points="706.7,306 721.4,314.5 736.1,323 736.1,306 736.1,289 721.4,297.5 "/>
</svg>
